<svg xmlns="http://www.w3.org/2000/svg" xmlns:xlink="http://www.w3.org/1999/xlink" width="500" zoomAndPan="magnify" viewBox="0 0 375 374.999991" height="500" preserveAspectRatio="xMidYMid meet" version="1.0"><defs><clipPath id="9b8056c80c"><path d="M 39.597656 218 L 94 218 L 94 266 L 39.597656 266 Z M 39.597656 218 " clip-rule="nonzero"/></clipPath><clipPath id="80be7a5adc"><path d="M 239 278 L 269 278 L 269 286.589844 L 239 286.589844 Z M 239 278 " clip-rule="nonzero"/></clipPath></defs><path fill="#fff9eb" d="M 116.300781 252.484375 C 116.300781 254.09375 116.300781 256.089844 114.84375 258.546875 C 113.390625 261 112.316406 261.308594 107.492188 264.03125 C 102.628906 266.792969 98.570312 267.023438 96.042969 268.058594 C 93.515625 269.132812 89.878906 268.214844 88.652344 269.058594 C 87.429688 269.902344 83.027344 270.898438 78.8125 271.667969 C 74.601562 272.433594 70.582031 271.589844 70.582031 271.589844 C 70.582031 271.589844 66.675781 272.050781 65.21875 272.433594 C 63.726562 272.816406 61.542969 272.242188 57.714844 272.550781 C 53.925781 272.816406 52.355469 270.054688 52.355469 270.054688 C 52.355469 270.054688 49.136719 269.632812 46.957031 267.792969 C 44.773438 265.949219 45.730469 263.917969 45.730469 263.917969 C 45.730469 263.917969 44.886719 263.457031 43.28125 262 C 41.671875 260.539062 41.25 256.859375 41.25 256.859375 C 41.25 256.859375 41.441406 253.214844 41.632812 250.71875 C 41.785156 248.226562 43.472656 245.15625 43.472656 245.15625 C 43.472656 245.15625 42.898438 240.898438 45.882812 239.363281 C 48.871094 237.828125 46.6875 234.683594 50.289062 233.148438 L 53.886719 231.613281 C 53.886719 231.613281 53.582031 228.621094 56.71875 227.929688 C 59.859375 227.238281 61.851562 226.472656 61.851562 226.472656 C 61.851562 226.472656 62.5 224.363281 65.066406 224.054688 C 67.632812 223.75 71.5 222.75 71.5 222.75 L 80.34375 221.023438 C 80.34375 221.023438 83.179688 220.179688 85.78125 220.371094 C 88.386719 220.566406 96.390625 221.832031 96.390625 221.832031 C 96.390625 221.832031 97.347656 219.644531 96.390625 217.996094 C 95.433594 216.382812 94.972656 213.429688 94.359375 211.472656 C 93.785156 209.515625 93.9375 204.988281 94.589844 202.074219 C 95.238281 199.15625 95.738281 195.472656 96.3125 191.984375 C 96.886719 188.492188 95.46875 186.726562 98.339844 184.925781 C 101.214844 183.121094 103.472656 181.546875 104.8125 178.171875 C 106.152344 174.796875 110.9375 174.988281 110.9375 174.988281 C 110.9375 174.988281 110.671875 171.574219 114.652344 170 C 118.636719 168.390625 121.316406 164.707031 125.414062 163.824219 C 125.414062 163.824219 127.367188 161.292969 131.769531 160.484375 C 136.171875 159.679688 140.574219 159.105469 142.414062 158.644531 C 144.25 158.183594 150.070312 157.570312 150.070312 157.570312 L 153.863281 155 L 158.574219 153.464844 L 160.257812 151.007812 C 160.257812 151.007812 160.105469 147.671875 160.257812 146.175781 C 160.410156 144.679688 159.261719 142.875 159.835938 140.496094 C 160.410156 138.117188 162.363281 136.199219 162.476562 134.089844 C 162.59375 131.980469 164.316406 130.214844 165.042969 128.414062 C 165.808594 126.648438 167.992188 123.886719 168.679688 122.851562 C 169.371094 121.8125 171.476562 116.441406 173.390625 113.640625 C 175.265625 110.84375 178.445312 107.773438 181.316406 105.164062 C 184.1875 102.554688 185.835938 103.476562 187.75 101.058594 C 189.664062 98.640625 190.8125 100.40625 192.535156 98.449219 C 194.257812 96.457031 194.488281 95.535156 196.785156 94.804688 C 199.082031 94.078125 201.191406 92.003906 204.867188 91.929688 C 208.503906 91.851562 210.1875 93.195312 210.1875 93.195312 C 210.1875 93.195312 216.542969 92.195312 218.957031 93.882812 C 221.367188 95.574219 221.867188 96.109375 221.867188 96.109375 C 221.867188 96.109375 224.394531 95.113281 225.925781 96.457031 C 227.457031 97.796875 228.335938 98.566406 228.335938 98.566406 C 228.335938 98.566406 230.710938 97.03125 233.199219 98.257812 C 235.6875 99.484375 235.460938 102.09375 235.460938 102.09375 C 235.460938 102.09375 237.183594 101.328125 238.523438 102.785156 C 239.863281 104.242188 239.785156 105.242188 240.707031 105.816406 C 241.625 106.390625 244.035156 106.46875 244.152344 108.847656 C 244.265625 111.226562 244.152344 114.179688 244.152344 114.179688 C 244.152344 114.179688 246.332031 118.589844 245.300781 121.890625 C 245.300781 121.890625 247.675781 125.6875 247.214844 128.144531 L 246.753906 130.5625 C 246.753906 130.5625 248.058594 133.785156 247.292969 136.164062 C 246.527344 138.542969 246.601562 138.847656 246.601562 138.847656 C 246.601562 138.847656 247.710938 141.226562 246.871094 143.222656 C 246.027344 145.179688 245.757812 145.636719 245.757812 145.636719 C 245.757812 145.636719 245.835938 149.207031 244.6875 151.777344 C 243.539062 154.347656 243.460938 154.769531 243.460938 154.769531 C 243.460938 154.769531 243.84375 156.535156 243.117188 158.300781 C 242.390625 160.101562 241.125 160.792969 241.125 160.792969 C 241.125 160.792969 241.777344 161.328125 240.859375 164.054688 C 239.941406 166.777344 238.484375 169.042969 238.484375 169.042969 L 237.71875 172.261719 C 237.71875 172.261719 240.476562 174.835938 242.925781 175.871094 C 245.375 176.90625 246.332031 177.25 247.710938 178.441406 C 249.128906 179.628906 250.851562 180.550781 252.078125 180.894531 C 253.304688 181.242188 254.105469 181.433594 254.105469 181.433594 C 254.105469 181.433594 254.03125 178.09375 255.867188 176.332031 C 257.707031 174.566406 259.007812 170.921875 260.195312 170.039062 C 261.382812 169.15625 263.144531 168.390625 263.71875 167.390625 C 264.332031 166.394531 265.785156 164.589844 267.660156 163.476562 C 269.539062 162.367188 269.996094 160.5625 272.140625 159.257812 C 274.246094 157.953125 275.550781 156.1875 278.460938 155.691406 C 281.40625 155.191406 281.753906 153.773438 285.121094 152.660156 C 288.492188 151.546875 288.835938 152.238281 291.707031 149.78125 C 294.578125 147.328125 298.371094 146.40625 300.476562 146.484375 C 302.582031 146.558594 304.191406 148.667969 305.339844 148.210938 C 306.488281 147.75 307.75 147.289062 310.277344 147.941406 C 312.804688 148.59375 312.460938 150.816406 314.71875 151.046875 C 316.980469 151.277344 320.234375 151.855469 321.726562 153.582031 C 323.222656 155.304688 322.953125 158.644531 323.640625 159.179688 C 324.332031 159.71875 326.515625 160.871094 327.164062 162.097656 C 327.777344 163.324219 327.585938 165.050781 328.542969 166.777344 C 329.5 168.503906 330.417969 169.578125 330.726562 172.953125 C 331.03125 176.332031 328.429688 183.199219 329.539062 185 C 330.648438 186.804688 330.6875 189.414062 331.222656 191.101562 C 331.796875 192.789062 333.0625 195.742188 331.914062 197.777344 C 330.765625 199.808594 330.765625 199.886719 331.222656 201.917969 C 331.683594 203.953125 330.191406 205.488281 330.574219 207.175781 C 330.957031 208.863281 330.34375 211.011719 329.769531 214.121094 C 329.195312 217.226562 327.28125 222.75 326.933594 225.246094 C 326.589844 227.738281 324.753906 229.886719 323.566406 233.035156 C 322.378906 236.179688 317.59375 241.320312 316.40625 243.007812 C 315.21875 244.695312 310.851562 249.300781 310.851562 249.300781 C 310.851562 249.300781 312.460938 250.066406 314.144531 253.636719 C 315.871094 257.203125 315.832031 260.464844 316.367188 261.230469 C 316.902344 262 317.707031 264.800781 316.40625 267.867188 C 315.140625 270.9375 314.988281 273.851562 312.347656 276.652344 C 309.703125 279.453125 306.375 279.492188 303.5 280.335938 C 300.628906 281.179688 295.996094 280.566406 294.3125 281.71875 C 292.628906 282.867188 284.164062 282.484375 284.164062 282.5625 C 284.164062 282.640625 278.726562 283.445312 276.125 283.941406 C 273.519531 284.441406 265.863281 284.789062 264.253906 284.671875 C 262.644531 284.558594 257.898438 283.445312 257.898438 283.445312 C 257.898438 283.445312 254.261719 283.675781 251.234375 283.789062 C 248.25 283.90625 241.625 281.296875 241.164062 281.296875 C 240.707031 281.296875 236.070312 278.878906 234.730469 276.691406 C 233.390625 274.503906 234.15625 267.828125 234.042969 264.070312 C 233.929688 260.308594 235.726562 257.625 235.726562 257.625 L 237.679688 253.441406 C 237.679688 253.441406 237.144531 252.140625 235.6875 251.984375 C 234.234375 251.832031 116.300781 252.484375 116.300781 252.484375 Z M 116.300781 252.484375 " fill-opacity="1" fill-rule="nonzero"/><path fill="#edc8c6" d="M 225.886719 130.484375 C 225.808594 129.21875 225.773438 127.914062 225.390625 126.6875 C 224.625 124.15625 222.632812 122.121094 221.714844 119.628906 C 221.140625 118.132812 220.910156 116.367188 219.605469 115.445312 C 218.917969 114.945312 218.039062 114.792969 217.195312 114.640625 C 213.824219 114.066406 210.148438 113.566406 207.125 115.175781 C 205.746094 115.90625 204.597656 117.058594 203.105469 117.554688 C 201.992188 117.9375 200.769531 117.9375 199.65625 118.285156 C 197.515625 118.9375 195.90625 120.664062 194.679688 122.503906 C 193.453125 124.347656 192.496094 126.417969 191.15625 128.183594 C 189.394531 130.484375 186.90625 132.324219 185.875 135.050781 C 185.222656 136.777344 185.261719 138.695312 184.6875 140.460938 C 184.074219 142.339844 182.808594 143.949219 181.96875 145.792969 C 180.894531 148.132812 180.628906 150.742188 180.398438 153.3125 C 180.246094 154.617188 180.128906 155.957031 180.398438 157.226562 C 180.894531 159.488281 182.734375 161.40625 184.953125 161.980469 C 187.289062 163.671875 190.429688 161.945312 193.378906 163.746094 C 193.835938 164.015625 194.335938 163.171875 194.871094 163.054688 C 195.5625 162.902344 196.289062 163.09375 196.976562 163.324219 C 200.117188 164.246094 203.296875 165.203125 206.433594 166.125 C 207.125 166.316406 207.851562 166.546875 208.578125 166.546875 C 209.34375 166.546875 210.109375 166.316406 210.914062 166.203125 C 212.675781 165.894531 214.515625 166.046875 216.277344 165.78125 C 218.074219 165.550781 219.914062 164.820312 220.871094 163.285156 C 221.558594 162.171875 221.675781 160.832031 221.789062 159.566406 C 222.210938 155.574219 222.9375 151.625 223.859375 147.710938 C 224.699219 143.949219 225.695312 140.191406 225.925781 136.355469 C 226.039062 134.4375 225.964844 132.441406 225.886719 130.484375 Z M 225.886719 130.484375 " fill-opacity="1" fill-rule="nonzero"/><path fill="#edc8c6" d="M 310.125 186.878906 C 310.050781 185.230469 310.355469 183.582031 310.125 181.96875 C 309.894531 180.359375 309.054688 178.632812 307.523438 178.09375 C 306.984375 177.902344 306.375 177.902344 305.875 177.671875 C 305.339844 177.441406 304.917969 176.984375 304.457031 176.558594 C 301.050781 173.414062 295.691406 172.648438 291.554688 174.71875 C 290.328125 175.332031 289.21875 176.175781 287.878906 176.484375 C 287.191406 176.636719 286.5 176.675781 285.851562 176.90625 C 285.046875 177.210938 284.355469 177.789062 283.742188 178.402344 C 282.480469 179.554688 281.253906 180.664062 279.992188 181.816406 C 278.878906 182.851562 277.730469 183.886719 277.042969 185.269531 C 276.507812 186.34375 276.277344 187.570312 275.742188 188.644531 C 274.859375 190.410156 273.214844 191.792969 272.679688 193.671875 C 272.257812 195.167969 272.601562 196.855469 273.597656 198.042969 C 274.246094 198.8125 275.128906 199.386719 275.777344 200.191406 C 276.582031 201.230469 276.851562 202.609375 277.464844 203.800781 C 278.078125 204.988281 279.226562 206.101562 280.527344 205.910156 L 283.933594 207.941406 C 284.738281 207.636719 285.660156 208.058594 286.308594 208.59375 C 287 209.132812 287.535156 209.824219 288.300781 210.207031 C 289.257812 210.703125 290.367188 210.667969 291.324219 211.128906 C 292.472656 211.625 293.316406 212.699219 294.464844 213.277344 C 296.1875 214.195312 298.292969 213.851562 300.207031 213.46875 C 301.433594 213.238281 302.773438 212.890625 303.464844 211.855469 C 304.230469 210.703125 303.882812 209.171875 304.457031 207.90625 C 304.839844 207.097656 305.53125 206.523438 305.992188 205.757812 C 306.71875 204.414062 306.527344 202.800781 306.984375 201.34375 C 307.40625 200 308.402344 198.851562 308.710938 197.46875 C 308.976562 196.242188 308.671875 194.9375 308.9375 193.710938 C 309.207031 192.40625 310.085938 191.332031 310.316406 190.027344 C 310.355469 188.875 310.164062 187.878906 310.125 186.878906 Z M 310.125 186.878906 " fill-opacity="1" fill-rule="nonzero"/><path fill="#edc8c6" d="M 150.570312 220.105469 C 150.109375 219.527344 149.613281 218.953125 149.113281 218.378906 C 149.078125 218.261719 149.039062 218.1875 148.960938 218.109375 C 146.585938 214.964844 143.140625 212.816406 139.199219 212.316406 C 137.207031 212.046875 134.984375 212.238281 133.605469 213.890625 C 132.074219 215.730469 132.804688 218.1875 134.105469 219.988281 C 136.480469 223.289062 140.613281 225.285156 144.558594 225.9375 C 146.394531 226.242188 148.769531 226.625 150.492188 225.707031 C 151.414062 225.207031 152.023438 224.285156 152.023438 223.210938 C 152.023438 222.023438 151.296875 221.023438 150.570312 220.105469 Z M 150.570312 220.105469 " fill-opacity="1" fill-rule="nonzero"/><path fill="#edc8c6" d="M 219.339844 251.753906 C 219.261719 251.488281 219.070312 251.21875 218.804688 251.066406 C 217.730469 248.761719 214.78125 247.6875 212.410156 247.6875 C 210.953125 247.6875 209.535156 248.109375 208.234375 248.6875 C 207.125 249.183594 206.28125 250.027344 205.59375 251.066406 C 205.554688 251.101562 205.554688 251.179688 205.515625 251.21875 C 205.441406 251.410156 205.402344 251.5625 205.402344 251.753906 C 205.402344 251.753906 205.402344 251.792969 205.402344 251.792969 C 205.402344 251.792969 205.402344 251.832031 205.402344 251.832031 C 205.402344 251.871094 205.402344 251.910156 205.402344 251.945312 C 205.441406 252.332031 205.632812 252.675781 205.898438 252.945312 C 205.976562 252.984375 206.015625 253.058594 206.089844 253.097656 C 206.089844 253.097656 206.128906 253.097656 206.128906 253.136719 C 206.167969 253.175781 206.207031 253.175781 206.242188 253.175781 C 206.28125 253.175781 206.320312 253.214844 206.359375 253.214844 C 206.433594 253.25 206.472656 253.25 206.550781 253.289062 C 206.589844 253.289062 206.625 253.289062 206.625 253.328125 C 206.703125 253.328125 206.742188 253.328125 206.816406 253.367188 C 206.855469 253.367188 206.855469 253.367188 206.894531 253.367188 C 206.933594 253.367188 206.933594 253.367188 206.972656 253.367188 C 208.351562 253.367188 209.765625 253.480469 211.144531 253.597656 C 211.988281 253.75 212.867188 253.828125 213.710938 253.828125 C 215.011719 253.941406 216.3125 254.019531 217.617188 254.058594 C 217.960938 254.058594 218.230469 253.980469 218.457031 253.789062 C 218.726562 253.671875 218.917969 253.519531 219.070312 253.289062 C 219.1875 253.136719 219.300781 252.945312 219.339844 252.753906 C 219.492188 252.367188 219.453125 252.023438 219.339844 251.753906 Z M 219.339844 251.753906 " fill-opacity="1" fill-rule="nonzero"/><path fill="#edc8c6" d="M 131.882812 248.800781 C 131.65625 246.347656 129.855469 244.121094 127.519531 243.316406 C 126.636719 240.976562 125.488281 238.328125 123.117188 237.484375 C 122.578125 237.292969 122.042969 237.214844 121.582031 236.90625 C 121.164062 236.640625 120.933594 236.179688 120.664062 235.757812 C 116.070312 228.507812 108.027344 223.59375 99.492188 222.828125 L 98.761719 222.941406 C 101.941406 224.976562 104.621094 227.738281 106.652344 230.921875 C 108.410156 231.230469 109.980469 232.535156 110.671875 234.183594 C 111.167969 235.410156 111.285156 236.90625 112.316406 237.714844 C 112.816406 238.097656 113.429688 238.25 113.964844 238.519531 C 115.304688 239.25 116.03125 240.898438 115.6875 242.355469 C 115.574219 242.816406 115.382812 243.316406 115.496094 243.773438 C 115.609375 244.160156 115.917969 244.464844 116.148438 244.773438 C 117.179688 245.960938 117.753906 247.535156 117.679688 249.109375 C 121.929688 249.375 126.21875 249.683594 130.503906 249.953125 C 130.964844 249.992188 131.539062 249.953125 131.808594 249.570312 C 131.921875 249.339844 131.921875 249.03125 131.882812 248.800781 Z M 131.882812 248.800781 " fill-opacity="1" fill-rule="nonzero"/><path fill="#edc8c6" d="M 133.378906 248.378906 C 132.957031 245.273438 130.8125 242.929688 127.941406 241.820312 L 129.011719 242.894531 C 127.902344 239.9375 126.601562 237.292969 123.574219 235.988281 C 122.464844 235.527344 122.121094 235.105469 121.46875 234.109375 C 120.972656 233.378906 120.433594 232.6875 119.859375 231.996094 C 118.75 230.617188 117.488281 229.386719 116.148438 228.238281 C 113.542969 226.050781 110.632812 224.363281 107.492188 223.097656 C 104.734375 222.023438 101.328125 220.949219 98.378906 221.410156 C 96.964844 221.640625 97.039062 223.558594 97.996094 224.210938 C 100.5625 225.898438 102.820312 228.007812 104.582031 230.539062 C 104.964844 231.078125 105.3125 231.84375 105.886719 232.226562 C 106.382812 232.535156 107.035156 232.535156 107.570312 232.839844 C 108.871094 233.570312 109.253906 234.722656 109.675781 236.0625 C 110.019531 237.136719 110.480469 238.175781 111.398438 238.902344 C 112.433594 239.707031 114.117188 239.863281 114.230469 241.472656 C 114.347656 242.738281 113.621094 243.699219 114.347656 244.925781 C 115.226562 246.421875 116.183594 247.226562 116.183594 249.109375 C 116.183594 249.992188 116.875 250.605469 117.714844 250.644531 C 121.125 250.871094 124.53125 251.101562 127.976562 251.332031 C 130.199219 251.488281 133.53125 252.0625 133.492188 248.800781 C 133.453125 246.84375 130.390625 246.804688 130.429688 248.800781 C 131.003906 248.53125 131.117188 248.378906 130.734375 248.417969 C 130.46875 248.417969 130.199219 248.417969 129.929688 248.378906 C 129.394531 248.339844 128.859375 248.300781 128.324219 248.265625 C 127.136719 248.1875 125.988281 248.109375 124.800781 248.035156 C 122.464844 247.878906 120.089844 247.726562 117.753906 247.574219 C 118.253906 248.070312 118.789062 248.609375 119.285156 249.109375 C 119.285156 247.957031 119.09375 246.84375 118.636719 245.769531 C 118.289062 244.964844 117.21875 244.003906 117.105469 243.277344 C 117.027344 242.816406 117.371094 242.050781 117.371094 241.511719 C 117.371094 241.089844 117.296875 240.628906 117.140625 240.207031 C 116.835938 239.25 116.261719 238.367188 115.457031 237.714844 C 114.652344 237.0625 113.390625 236.90625 112.890625 235.988281 C 112.394531 235.066406 112.316406 233.992188 111.859375 233.070312 C 110.902344 231.230469 109.140625 229.964844 107.109375 229.503906 L 108.027344 230.195312 C 105.808594 226.78125 103.011719 223.902344 99.605469 221.640625 C 99.492188 222.558594 99.375 223.519531 99.222656 224.441406 C 100.601562 224.210938 102.246094 224.746094 103.585938 225.089844 C 105.425781 225.589844 107.1875 226.242188 108.871094 227.085938 C 112.203125 228.773438 115.152344 231.113281 117.5625 233.992188 C 118.636719 235.296875 119.441406 237.292969 120.894531 238.210938 C 121.621094 238.671875 122.503906 238.75 123.230469 239.171875 C 124.035156 239.632812 124.570312 240.398438 124.992188 241.167969 C 125.796875 242.585938 125.910156 244.121094 127.441406 244.886719 C 129.203125 245.769531 130.199219 247.226562 130.503906 249.183594 C 130.695312 251.140625 133.644531 250.296875 133.378906 248.378906 Z M 133.378906 248.378906 " fill-opacity="1" fill-rule="nonzero"/><path fill="#edc8c6" d="M 315.679688 238.058594 C 315.257812 237.90625 314.835938 237.867188 314.414062 237.714844 C 313.074219 237.253906 312.421875 235.796875 311.3125 234.875 C 309.703125 233.53125 307.101562 233.648438 305.609375 235.144531 C 302.390625 233.1875 298.371094 232.878906 294.65625 233.53125 C 290.941406 234.183594 287.457031 235.71875 284.011719 237.253906 L 284.394531 237.367188 C 288.109375 237.136719 291.824219 237.523438 295.382812 238.519531 C 296.339844 238.789062 297.296875 239.09375 298.027344 239.707031 C 298.445312 240.054688 298.792969 240.476562 299.25 240.667969 C 300.09375 241.089844 301.128906 240.78125 302.046875 241.050781 C 304.074219 241.589844 304.804688 244.425781 306.871094 244.964844 C 307.484375 245.117188 308.132812 245.042969 308.746094 245.195312 C 310.242188 245.578125 310.96875 247.226562 312.15625 248.226562 C 312.347656 248.417969 312.613281 248.570312 312.84375 248.53125 C 313.113281 248.496094 313.304688 248.226562 313.457031 247.996094 C 314.183594 246.882812 314.910156 245.808594 315.640625 244.695312 C 316.328125 243.621094 317.054688 242.507812 317.246094 241.242188 C 317.402344 239.976562 316.863281 238.519531 315.679688 238.058594 Z M 315.679688 238.058594 " fill-opacity="1" fill-rule="nonzero"/><path fill="#edc8c6" d="M 316.097656 236.5625 C 315.449219 236.371094 314.875 236.292969 314.335938 235.871094 C 313.839844 235.488281 313.496094 234.914062 313.074219 234.453125 C 312.386719 233.683594 311.582031 233.070312 310.585938 232.726562 C 308.441406 231.996094 306.21875 232.574219 304.535156 234.03125 C 305.148438 233.953125 305.761719 233.878906 306.375 233.800781 C 298.867188 229.425781 290.445312 232.6875 283.207031 235.910156 C 281.945312 236.484375 282.402344 238.367188 283.589844 238.710938 C 284.625 239.019531 285.773438 238.789062 286.84375 238.828125 C 288.070312 238.828125 289.335938 238.902344 290.558594 239.054688 C 292.933594 239.363281 295.652344 239.707031 297.566406 241.242188 C 298.410156 241.894531 299.136719 242.277344 300.171875 242.394531 C 301.128906 242.472656 301.855469 242.394531 302.582031 243.125 C 303.847656 244.351562 304.648438 245.921875 306.449219 246.382812 C 307.445312 246.652344 308.324219 246.460938 309.167969 247.191406 C 309.933594 247.84375 310.394531 248.761719 311.234375 249.375 C 313.226562 250.871094 314.453125 249.222656 315.523438 247.613281 C 317.476562 244.65625 321.269531 239.171875 316.480469 236.679688 C 314.71875 235.757812 313.1875 238.40625 314.949219 239.324219 C 316.40625 240.09375 315.5625 241.855469 314.949219 242.929688 C 314.527344 243.621094 314.070312 244.273438 313.648438 244.964844 C 313.265625 245.539062 312.730469 246.804688 312.15625 247.113281 C 312.539062 247.074219 312.960938 246.996094 313.34375 246.960938 C 312.421875 246.804688 311.390625 244.847656 310.585938 244.3125 C 309.476562 243.546875 308.324219 243.8125 307.175781 243.316406 C 306.183594 242.894531 305.570312 241.664062 304.804688 240.898438 C 303.960938 240.054688 303.003906 239.515625 301.855469 239.363281 C 301.164062 239.285156 300.476562 239.363281 299.863281 239.054688 C 299.289062 238.75 298.828125 238.210938 298.253906 237.867188 C 296.992188 237.136719 295.460938 236.792969 294.042969 236.484375 C 292.511719 236.140625 290.941406 235.910156 289.371094 235.796875 C 288.453125 235.71875 287.535156 235.679688 286.617188 235.679688 C 285.964844 235.679688 285.121094 235.871094 284.507812 235.679688 C 284.625 236.601562 284.738281 237.558594 284.890625 238.480469 C 291.058594 235.757812 298.523438 232.648438 304.957031 236.371094 C 305.570312 236.714844 306.296875 236.601562 306.792969 236.140625 C 308.363281 234.757812 310.125 235.527344 311.3125 236.90625 C 312.539062 238.328125 313.570312 238.902344 315.371094 239.441406 C 317.171875 240.09375 317.976562 237.136719 316.097656 236.5625 Z M 316.097656 236.5625 " fill-opacity="1" fill-rule="nonzero"/><g clip-path="url(#9b8056c80c)"><path fill="#543c2f" d="M 46.839844 262.726562 C 44.542969 261.652344 42.898438 259.464844 42.78125 256.820312 C 42.742188 255.515625 43.28125 254.402344 43.433594 253.097656 C 43.546875 251.601562 42.820312 250.183594 43.242188 248.722656 C 43.625 247.382812 44.773438 246.460938 45.042969 245.078125 C 45.347656 243.507812 45.269531 242.242188 46.421875 240.976562 C 47.148438 240.167969 48.449219 239.902344 48.832031 238.828125 C 49.367188 237.367188 49.214844 236.292969 50.402344 235.027344 C 51.320312 234.070312 52.316406 233.800781 53.542969 233.417969 C 54.730469 233.070312 55.226562 232.417969 55.722656 231.308594 C 56.375 229.925781 57.371094 228.890625 58.980469 228.738281 C 60.28125 228.621094 61.316406 229.003906 62.425781 228.085938 C 63.613281 227.085938 64.261719 225.859375 65.871094 225.359375 C 67.289062 224.9375 68.550781 225.898438 69.96875 225.550781 C 71.039062 225.285156 71.652344 224.324219 72.609375 223.824219 C 73.949219 223.097656 74.753906 224.441406 76.171875 224.210938 C 77.589844 223.980469 78.125 222.292969 79.695312 222.40625 C 80.882812 222.484375 81.53125 223.59375 82.796875 223.210938 C 83.445312 223.019531 83.601562 222.636719 84.058594 222.253906 C 84.75 221.675781 85.324219 221.792969 86.128906 221.867188 C 87.085938 221.945312 90.414062 221.675781 90.914062 222.675781 C 91.792969 224.441406 94.4375 222.867188 93.554688 221.140625 C 92.367188 218.800781 89.304688 219.070312 87.085938 218.875 C 85.78125 218.761719 84.328125 218.53125 83.101562 219.144531 C 82.871094 219.261719 81.914062 219.722656 81.914062 220.066406 C 81.648438 220.335938 81.800781 220.371094 82.414062 220.21875 C 82.183594 220.027344 81.875 219.914062 81.609375 219.796875 C 80.382812 219.261719 79.042969 219.222656 77.78125 219.644531 C 77.320312 219.796875 76.898438 220.027344 76.515625 220.296875 C 76.285156 220.488281 76.058594 220.679688 75.828125 220.871094 C 75.367188 221.253906 75.367188 221.332031 75.828125 221.101562 C 75.289062 220.988281 74.792969 220.566406 74.21875 220.449219 C 73.644531 220.335938 73.070312 220.410156 72.535156 220.566406 C 71.269531 220.910156 70.238281 222.367188 69.011719 222.484375 C 68.4375 222.558594 67.59375 222.136719 66.945312 222.136719 C 66.445312 222.136719 65.871094 222.214844 65.410156 222.328125 C 63.996094 222.675781 62.695312 223.480469 61.660156 224.476562 C 60.816406 225.246094 60.550781 225.515625 59.402344 225.628906 C 58.902344 225.667969 58.40625 225.667969 57.90625 225.820312 C 56.605469 226.128906 55.378906 226.816406 54.421875 227.777344 C 54.078125 228.121094 53.773438 228.542969 53.503906 228.929688 C 53.273438 229.3125 53.082031 230.195312 52.777344 230.460938 C 52.394531 230.769531 51.4375 230.808594 50.976562 231 C 50.324219 231.269531 49.75 231.613281 49.175781 232.074219 C 47.1875 233.609375 46.074219 235.871094 45.882812 238.40625 L 46.648438 237.0625 C 43.96875 238.40625 42.589844 240.746094 42.167969 243.621094 C 41.941406 245.078125 41.019531 245.960938 40.523438 247.304688 C 39.988281 248.761719 40.0625 250.183594 40.332031 251.679688 C 40.601562 253.25 39.835938 254.710938 39.796875 256.28125 C 39.757812 257.433594 39.949219 258.621094 40.332031 259.695312 C 41.210938 262.191406 42.972656 264.222656 45.347656 265.335938 C 47.070312 266.21875 48.640625 263.570312 46.839844 262.726562 Z M 46.839844 262.726562 " fill-opacity="1" fill-rule="nonzero"/></g><path fill="#543c2f" d="M 97.269531 217.917969 C 96.042969 217.074219 95.394531 215.5 95.46875 214.003906 C 95.507812 212.777344 96.082031 211.816406 95.777344 210.550781 C 95.394531 209.054688 94.894531 207.789062 95.046875 206.179688 C 95.203125 204.488281 96.121094 203.03125 96.351562 201.382812 C 96.542969 199.964844 95.851562 198.660156 95.96875 197.238281 C 96.082031 195.667969 97 194.285156 97.613281 192.867188 C 98.726562 190.296875 97.691406 186.613281 100.5625 185 C 101.519531 184.464844 102.628906 184.539062 103.511719 183.851562 C 104.699219 182.929688 104.542969 181.472656 105.15625 180.242188 C 105.808594 178.9375 106.957031 178.058594 108.410156 177.789062 C 109.675781 177.558594 110.671875 177.597656 111.589844 176.636719 C 112.507812 175.679688 112.816406 174.257812 113.542969 173.183594 C 114.347656 171.996094 115.457031 171.074219 116.835938 170.613281 C 118.0625 170.191406 119.132812 170.039062 120.128906 169.15625 C 120.664062 168.695312 122.734375 165.359375 123.5 166.164062 C 124.1875 166.894531 125.453125 166.699219 125.910156 165.855469 C 126.714844 164.4375 127.785156 163.246094 129.28125 162.597656 C 130.085938 162.210938 130.964844 162.019531 131.847656 162.019531 C 132.496094 162.019531 133.148438 162.25 133.761719 162.019531 C 134.949219 161.523438 135.75 160.449219 137.089844 160.023438 C 138.507812 159.601562 139.964844 159.640625 141.378906 159.988281 C 142.222656 160.179688 142.949219 160.410156 143.832031 160.140625 C 144.519531 159.949219 145.09375 159.488281 145.746094 159.21875 C 147.007812 158.722656 148.347656 158.875 149.652344 159.144531 C 150.492188 159.296875 151.257812 158.914062 151.527344 158.070312 C 152.101562 156.304688 153.785156 156.496094 155.242188 157.070312 C 155.96875 157.339844 157.003906 156.765625 157.117188 155.996094 C 157.230469 155.421875 157.460938 154.808594 158.152344 155.039062 C 158.917969 155.304688 159.835938 154.730469 160.027344 153.964844 C 160.179688 153.273438 160.410156 152.8125 161.023438 152.429688 C 161.558594 152.082031 161.980469 151.316406 161.710938 150.703125 C 161.0625 149.089844 161.214844 147.328125 162.476562 146.0625 C 163.359375 145.179688 162.824219 143.914062 161.789062 143.488281 C 162.09375 143.605469 161.636719 142.914062 161.558594 142.609375 C 161.445312 142.1875 161.253906 141.609375 161.292969 141.148438 C 161.367188 139.960938 162.515625 139.078125 163.207031 138.15625 C 163.894531 137.273438 164.164062 136.355469 164.125 135.242188 C 164.046875 133.4375 163.742188 132.480469 165.121094 131.023438 C 165.847656 130.253906 166.34375 129.832031 166.535156 128.757812 C 166.726562 127.761719 166.613281 126.496094 167.648438 125.917969 C 168.261719 125.574219 168.988281 125.613281 169.601562 125.152344 C 170.441406 124.5 170.710938 123.65625 170.789062 122.65625 C 170.902344 121.199219 171.015625 120.050781 172.011719 118.898438 C 172.96875 117.824219 173.582031 117.132812 173.851562 115.675781 C 174.117188 114.140625 175 113.949219 176.03125 112.953125 C 177.027344 112.03125 177.21875 110.496094 178.523438 110.265625 C 179.632812 110.074219 180.398438 109.996094 181.050781 108.921875 C 181.851562 107.621094 182.042969 105.664062 183.574219 104.933594 C 184.648438 104.398438 185.835938 105.125 186.984375 104.625 C 188.285156 104.050781 188.285156 102.632812 189.167969 101.710938 C 189.933594 100.867188 190.621094 101.367188 191.578125 101.136719 C 192.113281 100.980469 192.726562 100.597656 193.148438 100.253906 C 193.609375 99.792969 193.839844 99.332031 194.066406 98.71875 C 194.832031 96.683594 195.675781 96.261719 197.972656 96.570312 C 199.925781 96.800781 199.925781 93.730469 197.972656 93.5 C 195.714844 93.234375 193.378906 93.617188 192.078125 95.648438 C 191.695312 96.261719 191.578125 97.105469 191.195312 97.722656 C 191.121094 97.835938 191.003906 98.066406 191.121094 98.027344 C 190.660156 98.335938 189.855469 98.027344 189.320312 98.105469 C 188.019531 98.296875 187.058594 99.410156 186.371094 100.484375 C 186.179688 100.828125 185.71875 101.824219 185.683594 101.824219 C 185.109375 102.019531 184.074219 101.597656 183.382812 101.789062 C 182.082031 102.09375 181.011719 103.015625 180.207031 104.050781 C 179.746094 104.625 179.402344 105.242188 179.097656 105.894531 C 178.980469 106.121094 178.90625 106.621094 178.714844 106.8125 C 178.292969 107.3125 178.253906 107.082031 177.601562 107.160156 C 176.414062 107.234375 175.382812 108.003906 174.847656 109.039062 C 174.347656 109.921875 174.308594 110.535156 173.429688 111.148438 C 172.855469 111.570312 172.28125 111.917969 171.859375 112.492188 C 170.824219 113.757812 171.132812 115.367188 170.058594 116.597656 C 168.988281 117.863281 168.183594 119.128906 167.878906 120.777344 C 167.800781 121.199219 167.914062 122.390625 167.722656 122.695312 C 167.609375 122.925781 167.722656 122.734375 167.265625 122.925781 C 166.230469 123.425781 165.425781 123.617188 164.699219 124.613281 C 163.972656 125.613281 163.816406 126.648438 163.550781 127.835938 C 163.359375 128.605469 163.320312 128.566406 162.707031 129.140625 C 162.058594 129.792969 161.558594 130.601562 161.214844 131.445312 C 160.90625 132.210938 160.753906 132.941406 160.792969 133.785156 C 160.832031 134.628906 161.214844 135.433594 160.871094 136.199219 C 160.332031 137.429688 159.03125 138.347656 158.496094 139.652344 C 157.578125 141.839844 158.648438 145.675781 160.945312 146.558594 C 160.714844 145.714844 160.488281 144.832031 160.257812 143.988281 C 158.265625 145.945312 157.652344 149.015625 158.6875 151.625 L 159.375 149.898438 C 158.113281 150.703125 157.308594 151.816406 156.964844 153.273438 C 157.578125 152.929688 158.226562 152.542969 158.839844 152.199219 C 156.582031 151.394531 154.4375 153.042969 154.054688 155.304688 C 154.667969 154.960938 155.316406 154.578125 155.929688 154.230469 C 152.789062 153.003906 149.574219 154.039062 148.464844 157.378906 C 149.078125 157.03125 149.726562 156.648438 150.339844 156.304688 C 148.273438 155.882812 146.203125 155.765625 144.25 156.648438 C 143.867188 156.839844 143.332031 157.261719 142.875 157.339844 C 142.222656 157.453125 141.1875 156.996094 140.460938 156.917969 C 137.472656 156.574219 134.027344 157.417969 131.921875 159.71875 L 133.414062 159.335938 C 129.128906 158.683594 125.261719 160.753906 123.152344 164.515625 C 123.957031 164.398438 124.761719 164.320312 125.566406 164.207031 C 123.996094 162.519531 121.585938 163.019531 120.089844 164.550781 C 119.019531 165.625 118.519531 166.96875 117.066406 167.582031 C 115.765625 168.082031 114.613281 168.3125 113.464844 169.117188 C 112.507812 169.808594 111.667969 170.652344 111.015625 171.648438 C 110.363281 172.648438 110.019531 174.335938 108.910156 174.835938 C 107.761719 175.332031 106.574219 175.21875 105.425781 175.910156 C 104.351562 176.523438 103.433594 177.441406 102.785156 178.515625 C 102.476562 179.015625 102.210938 179.589844 102.019531 180.128906 C 101.902344 180.472656 101.863281 181.355469 101.632812 181.585938 C 101.367188 181.894531 100.714844 181.894531 100.257812 182.046875 C 99.644531 182.238281 99.070312 182.546875 98.53125 182.890625 C 96.542969 184.273438 95.507812 186.496094 95.277344 188.875 C 95.125 190.523438 94.855469 191.675781 94.128906 193.171875 C 93.515625 194.4375 93.019531 195.742188 92.867188 197.199219 C 92.714844 198.695312 93.480469 200.230469 93.132812 201.6875 C 92.828125 203.03125 92.175781 204.222656 91.984375 205.640625 C 91.753906 207.175781 91.871094 208.75 92.292969 210.246094 C 92.484375 210.898438 92.789062 211.394531 92.714844 212.085938 C 92.636719 212.777344 92.40625 213.351562 92.367188 214.003906 C 92.214844 216.726562 93.480469 219.261719 95.660156 220.796875 C 97.347656 221.675781 98.878906 219.03125 97.269531 217.917969 Z M 97.269531 217.917969 " fill-opacity="1" fill-rule="nonzero"/><path fill="#543c2f" d="M 199.082031 95.996094 C 201.382812 93.539062 206.242188 92.042969 208.695312 95.035156 C 209 95.417969 209.726562 95.609375 210.1875 95.417969 C 212.371094 94.652344 214.78125 94.078125 217.042969 94.730469 C 218.230469 95.074219 218.726562 95.574219 219.414062 96.53125 C 219.875 97.144531 220.375 97.53125 221.140625 97.644531 C 222.25 97.757812 223.550781 96.953125 224.585938 97.453125 C 225.390625 97.835938 225.542969 99.0625 226.269531 99.601562 C 228.222656 101.097656 230.136719 98.679688 232.050781 99.449219 C 233.621094 100.101562 232.550781 102.632812 234.617188 103.246094 C 235.382812 103.476562 235.917969 103.128906 236.648438 103.09375 C 237.988281 102.976562 237.871094 103.972656 237.988281 105.011719 C 238.179688 106.890625 239.289062 107.503906 240.972656 107.925781 C 243.769531 108.617188 242.542969 111.265625 242.007812 113.296875 C 241.507812 115.214844 244.457031 116.019531 244.957031 114.101562 C 245.796875 110.957031 246.753906 106.773438 242.847656 105.242188 C 242.199219 104.972656 241.316406 105.085938 241.050781 104.550781 C 240.707031 103.898438 240.933594 102.863281 240.515625 102.132812 C 239.746094 100.675781 238.332031 99.792969 236.683594 99.984375 C 236.453125 100.023438 236.035156 100.0625 235.84375 100.175781 L 235.421875 100.292969 C 235.917969 100.90625 236.109375 100.980469 235.996094 100.558594 C 236.261719 100.023438 235.613281 98.679688 235.34375 98.21875 C 234.347656 96.722656 232.550781 96.1875 230.828125 96.378906 C 230.136719 96.457031 228.683594 97.222656 228.070312 96.878906 C 227.609375 96.609375 227.265625 95.535156 226.730469 95.152344 C 226.078125 94.691406 225.3125 94.421875 224.507812 94.34375 C 223.359375 94.230469 222.25 94.730469 221.175781 94.613281 C 221.523438 94.765625 221.90625 94.921875 222.25 95.074219 C 221.40625 94.34375 221.0625 93.386719 220.066406 92.773438 C 219.1875 92.234375 218.152344 91.890625 217.15625 91.660156 C 214.554688 91.121094 211.871094 91.660156 209.421875 92.503906 C 209.917969 92.617188 210.417969 92.773438 210.914062 92.886719 C 207.394531 88.589844 200.386719 90.238281 196.976562 93.847656 C 195.5625 95.265625 197.742188 97.453125 199.082031 95.996094 Z M 199.082031 95.996094 " fill-opacity="1" fill-rule="nonzero"/><path fill="#543c2f" d="M 242.351562 114.753906 C 243.691406 116.328125 244.304688 119.320312 243.539062 121.238281 C 243.347656 121.699219 243.539062 122.429688 243.921875 122.734375 C 245.835938 124.382812 246.296875 127.183594 245.070312 129.410156 C 244.726562 130.023438 244.839844 130.792969 245.300781 131.289062 C 247.0625 133.054688 245.644531 135.777344 244.726562 137.582031 C 244.34375 138.386719 244.574219 139.191406 245.261719 139.691406 C 246.679688 140.691406 244.574219 143.03125 243.960938 143.71875 C 243.425781 144.296875 243.308594 145.332031 243.960938 145.90625 C 244.574219 146.445312 244.6875 147.558594 243.921875 148.015625 C 243.308594 148.402344 243.078125 149.054688 243.234375 149.742188 C 243.5 151.125 242.964844 152.277344 241.890625 153.121094 C 240.820312 153.964844 241.738281 155.765625 242.964844 155.726562 C 242.847656 155.726562 241.546875 157.683594 241.316406 157.953125 C 240.742188 158.527344 240.09375 159.027344 239.402344 159.449219 C 238.371094 160.0625 238.445312 161.445312 239.402344 162.097656 C 241.011719 163.210938 238.90625 165.203125 238.023438 165.78125 C 237.488281 166.125 237.066406 166.855469 237.335938 167.507812 C 237.71875 168.617188 237.488281 170.382812 235.878906 170.039062 C 233.964844 169.617188 233.125 172.570312 235.078125 172.992188 C 238.828125 173.835938 241.546875 170.191406 240.285156 166.699219 L 239.59375 168.425781 C 242.695312 166.46875 244.648438 161.945312 240.972656 159.449219 L 240.972656 162.097656 C 242.886719 160.90625 245.070312 159.105469 245.757812 156.878906 C 246.332031 154.921875 245.300781 152.660156 243.042969 152.699219 L 244.113281 155.304688 C 246.066406 153.773438 246.679688 151.355469 246.21875 148.9375 C 245.988281 149.511719 245.757812 150.089844 245.53125 150.664062 C 247.902344 149.207031 248.324219 145.601562 246.179688 143.71875 L 246.179688 145.90625 C 248.402344 143.414062 250.316406 139.460938 246.871094 137.042969 L 247.40625 139.15625 C 249.015625 136.007812 250.394531 132.019531 247.484375 129.140625 C 247.558594 129.753906 247.636719 130.371094 247.710938 131.023438 C 249.589844 127.683594 249.050781 123.15625 246.105469 120.625 C 246.21875 121.125 246.371094 121.621094 246.488281 122.121094 C 247.675781 119.167969 246.527344 114.984375 244.496094 112.644531 C 243.234375 111.109375 241.089844 113.296875 242.351562 114.753906 Z M 242.351562 114.753906 " fill-opacity="1" fill-rule="nonzero"/><path fill="#543c2f" d="M 229.675781 171.574219 C 230.480469 171.417969 231.324219 171.574219 232.011719 172.035156 C 232.625 172.457031 233.007812 173.03125 233.773438 173.222656 C 234.539062 173.414062 235.269531 173.183594 235.996094 173.492188 C 236.648438 173.761719 237.257812 174.257812 237.527344 174.910156 C 237.757812 175.523438 238.292969 176.0625 239.019531 176.023438 C 239.519531 175.984375 241.585938 175.984375 241.585938 176.714844 C 241.585938 178.09375 243.234375 178.632812 244.191406 177.789062 C 243.652344 178.25 243.882812 177.828125 244.304688 178.058594 C 244.574219 178.171875 244.839844 178.25 245.070312 178.441406 C 245.683594 178.824219 245.835938 179.515625 246.257812 180.089844 C 246.945312 181.050781 247.75 181.507812 248.9375 181.507812 C 250.46875 181.507812 252.691406 181.507812 252.535156 183.621094 C 252.382812 185.578125 255.445312 185.578125 255.601562 183.621094 C 255.90625 179.976562 252.460938 178.480469 249.359375 178.441406 C 249.167969 178.441406 248.976562 178.402344 248.785156 178.441406 C 248.402344 178.515625 248.824219 178.25 248.9375 178.554688 C 248.707031 177.941406 248.058594 176.90625 247.597656 176.445312 C 246.257812 175.140625 243.578125 174.296875 242.046875 175.640625 C 242.925781 175.984375 243.769531 176.367188 244.648438 176.714844 C 244.6875 173.796875 241.394531 172.839844 239.019531 172.953125 L 240.515625 174.066406 C 239.632812 171.839844 237.679688 170.308594 235.269531 170.191406 C 234.65625 170.152344 234.695312 170.191406 234.195312 169.769531 C 233.699219 169.347656 233.160156 169.078125 232.585938 168.847656 C 231.363281 168.390625 230.175781 168.351562 228.875 168.582031 C 226.921875 168.964844 227.726562 171.917969 229.675781 171.574219 Z M 229.675781 171.574219 " fill-opacity="1" fill-rule="nonzero"/><path fill="#543c2f" d="M 256.175781 181.703125 C 255.675781 179.167969 257.246094 178.058594 258.511719 176.175781 C 259.851562 174.21875 259.964844 170.765625 263.144531 170.921875 C 264.0625 170.960938 264.558594 170.191406 264.675781 169.386719 C 264.828125 168.273438 265.402344 167.238281 266.246094 166.507812 C 267.125 165.742188 268.351562 165.550781 269.15625 164.707031 C 269.921875 163.9375 270.074219 162.863281 270.6875 162.019531 C 271.414062 161.023438 272.523438 160.523438 273.710938 160.523438 C 274.4375 160.523438 274.9375 160.0625 275.203125 159.410156 C 275.816406 157.800781 277.578125 156.957031 279.226562 157.339844 C 279.914062 157.492188 280.566406 157.226562 280.949219 156.648438 C 282.171875 154.691406 284.433594 153.808594 286.652344 154.386719 C 288.566406 154.882812 289.371094 151.929688 287.457031 151.433594 C 283.898438 150.511719 280.257812 151.96875 278.304688 155.113281 L 280.03125 154.425781 C 276.660156 153.617188 273.445312 155.421875 272.257812 158.644531 L 273.75 157.53125 C 272.257812 157.570312 270.839844 157.992188 269.652344 158.875 C 269.078125 159.296875 268.582031 159.796875 268.160156 160.371094 C 267.699219 161.023438 267.507812 161.980469 266.933594 162.558594 C 266.398438 163.09375 265.515625 163.285156 264.90625 163.707031 C 264.292969 164.128906 263.757812 164.628906 263.296875 165.203125 C 262.261719 166.46875 261.804688 167.851562 261.574219 169.464844 C 262.070312 168.964844 262.605469 168.425781 263.105469 167.929688 C 261.382812 167.851562 259.8125 168.542969 258.585938 169.769531 C 257.207031 171.152344 256.941406 172.761719 256.058594 174.375 C 255.445312 175.484375 254.375 176.292969 253.761719 177.441406 C 252.917969 179.09375 252.804688 180.820312 253.1875 182.621094 C 253.609375 184.464844 256.558594 183.65625 256.175781 181.703125 Z M 256.175781 181.703125 " fill-opacity="1" fill-rule="nonzero"/><path fill="#543c2f" d="M 291.402344 152.621094 C 293.621094 150.933594 300.4375 145.5625 302.351562 150.089844 C 302.773438 151.046875 304.113281 150.972656 304.765625 150.394531 C 307.253906 148.132812 311.234375 148.859375 312.578125 152.046875 C 312.882812 152.773438 313.609375 153.425781 314.453125 153.121094 C 318.511719 151.625 322.570312 154.847656 321.496094 159.179688 C 321.269531 160.140625 321.957031 161.136719 322.992188 161.136719 C 325.210938 161.0625 326.589844 163.054688 325.519531 165.089844 C 325.058594 165.933594 325.441406 167.121094 326.4375 167.351562 C 328.582031 167.8125 328.238281 170.308594 327.890625 171.957031 C 327.699219 172.878906 328.3125 173.953125 329.386719 173.914062 C 329.882812 173.914062 329.691406 176.753906 329.652344 177.175781 C 329.539062 178.441406 329.234375 179.476562 328.238281 180.359375 C 326.742188 181.664062 328.925781 183.8125 330.417969 182.546875 C 333.023438 180.28125 334.707031 170.691406 329.386719 170.882812 L 330.878906 172.839844 C 331.570312 169.578125 331.222656 165.320312 327.28125 164.476562 C 327.585938 165.242188 327.890625 165.972656 328.199219 166.738281 C 330.34375 162.710938 327.625 158.070312 323.03125 158.183594 C 323.527344 158.835938 324.023438 159.488281 324.523438 160.140625 C 326.09375 153.695312 320.042969 147.941406 313.6875 150.28125 C 314.300781 150.625 314.949219 151.007812 315.5625 151.355469 C 313.34375 146.023438 307.023438 144.410156 302.660156 148.363281 C 303.464844 148.476562 304.265625 148.554688 305.070312 148.667969 C 302.199219 141.917969 293.546875 147.328125 289.910156 150.089844 C 288.339844 151.164062 289.832031 153.847656 291.402344 152.621094 Z M 291.402344 152.621094 " fill-opacity="1" fill-rule="nonzero"/><path fill="#543c2f" d="M 328.695312 186.421875 C 330.417969 187.109375 329.808594 189.488281 329.269531 190.753906 C 328.925781 191.5625 329.078125 192.328125 329.808594 192.867188 C 332.105469 194.476562 330.382812 197.621094 329.15625 199.3125 C 328.660156 200.039062 329.078125 201 329.691406 201.421875 C 331.339844 202.535156 329.5 204.949219 328.734375 206.0625 C 328.238281 206.753906 328.621094 207.75 329.269531 208.171875 C 331.261719 209.476562 329.269531 212.203125 328.238281 213.390625 C 327.699219 214.042969 327.625 214.925781 328.238281 215.578125 C 329.195312 216.535156 327.816406 218.378906 327.472656 219.414062 C 327.050781 220.640625 327.050781 222.945312 325.671875 223.480469 C 324.636719 223.902344 324.101562 225.167969 324.980469 226.050781 C 326.359375 227.433594 323.757812 228.738281 323.222656 229.734375 C 322.875 230.347656 323.144531 231 322.953125 231.652344 C 322.761719 232.496094 322.226562 233.070312 321.496094 233.53125 C 320.503906 234.144531 320.539062 235.566406 321.496094 236.179688 C 321.230469 235.605469 320.886719 235.488281 320.503906 235.832031 C 320.234375 235.949219 319.964844 236.140625 319.738281 236.332031 C 319.277344 236.714844 318.972656 237.101562 318.742188 237.597656 C 318.011719 239.171875 317.859375 240.628906 315.679688 240.628906 C 314.683594 240.628906 313.917969 241.625 314.183594 242.585938 C 314.683594 244.234375 313.34375 245.65625 311.886719 246.421875 C 310.164062 247.382812 311.695312 250.027344 313.417969 249.070312 C 316.023438 247.648438 318.011719 244.847656 317.132812 241.742188 C 316.636719 242.394531 316.136719 243.046875 315.640625 243.699219 C 317.054688 243.699219 318.359375 243.316406 319.46875 242.394531 C 320.003906 241.933594 320.503906 241.398438 320.847656 240.78125 C 321.152344 240.207031 321.191406 239.285156 321.535156 238.828125 C 322.265625 237.828125 323.566406 237.867188 324.023438 236.484375 C 324.445312 235.296875 324.023438 234.183594 322.992188 233.53125 L 322.992188 236.179688 C 325.019531 234.953125 326.167969 232.878906 326.015625 230.5 C 325.863281 230.847656 325.710938 231.230469 325.558594 231.574219 C 327.738281 229.582031 329.617188 226.433594 327.089844 223.863281 C 326.859375 224.707031 326.628906 225.589844 326.398438 226.433594 C 329.269531 225.285156 329.425781 222.828125 330.34375 220.21875 C 331.183594 217.839844 332.449219 215.539062 330.304688 213.390625 L 330.304688 215.578125 C 332.753906 212.699219 334.667969 208.097656 330.6875 205.527344 C 330.878906 206.214844 331.070312 206.90625 331.222656 207.636719 C 333.136719 204.875 334.402344 201.039062 331.070312 198.8125 L 331.605469 200.921875 C 333.941406 197.585938 334.9375 192.980469 331.148438 190.257812 C 331.339844 190.945312 331.53125 191.636719 331.683594 192.367188 C 333.101562 189.027344 333.101562 185.078125 329.269531 183.503906 C 327.664062 182.738281 326.898438 185.730469 328.695312 186.421875 Z M 328.695312 186.421875 " fill-opacity="1" fill-rule="nonzero"/><path fill="#543c2f" d="M 238.445312 277.726562 C 236.914062 277.074219 237.222656 275.695312 236.800781 274.390625 C 236.417969 273.164062 235.574219 272.28125 235.34375 270.976562 C 235.113281 269.59375 235.113281 268.097656 235.078125 266.679688 C 235 264.761719 234.886719 262.804688 236.070312 261.15625 C 236.875 260.003906 237.910156 259.773438 238.0625 258.277344 C 238.214844 256.78125 238.523438 255.515625 239.941406 254.710938 C 240.972656 254.09375 242.007812 253.980469 242.734375 252.90625 C 243.617188 251.601562 243.84375 249.796875 245.914062 250.144531 C 246.753906 250.257812 247.519531 249.953125 247.789062 249.070312 C 248.824219 245.769531 252.308594 247.226562 254.296875 245.078125 C 255.410156 243.890625 256.328125 242.894531 258.050781 242.777344 C 259.46875 242.664062 260.617188 243.007812 261.839844 242.125 C 263.066406 241.242188 263.679688 239.863281 265.515625 240.246094 C 266.933594 240.550781 267.738281 241.203125 269.15625 240.324219 C 270.535156 239.480469 271.414062 238.789062 273.0625 239.554688 C 274.363281 240.167969 275.203125 240.515625 276.507812 239.632812 C 277.347656 239.054688 277.730469 238.632812 278.878906 238.902344 C 279.378906 239.019531 279.800781 239.324219 280.296875 239.441406 C 281.828125 239.746094 283.4375 239.132812 284.890625 238.828125 C 285.925781 238.632812 286.808594 238.597656 287.765625 239.019531 C 288.605469 239.402344 289.488281 239.976562 290.40625 240.128906 C 291.746094 240.359375 292.703125 239.363281 293.96875 240.128906 C 295 240.746094 295.804688 241.472656 297.070312 241.550781 C 297.644531 241.589844 298.21875 241.433594 298.714844 241.703125 C 299.25 241.972656 299.75 242.664062 300.171875 243.046875 C 300.554688 243.351562 300.9375 243.699219 301.355469 243.890625 C 301.929688 244.121094 302.390625 243.96875 302.925781 244.082031 C 302.351562 243.96875 302.925781 244.199219 303.042969 244.273438 C 303.425781 244.542969 303.730469 244.847656 304.039062 245.195312 C 304.457031 245.695312 304.726562 246.191406 305.339844 246.5 C 305.835938 246.730469 306.71875 246.613281 307.140625 246.996094 C 307.597656 247.457031 307.828125 248.609375 308.324219 249.144531 C 309.054688 249.953125 309.933594 250.414062 310.890625 250.910156 C 312.269531 251.601562 312.539062 252.792969 312.421875 254.289062 C 312.386719 254.785156 312.730469 255.363281 313.1875 255.628906 C 314.605469 256.4375 314.875 258.890625 314.414062 260.273438 C 314.261719 260.769531 314.414062 261.421875 314.796875 261.769531 C 316.480469 263.226562 316.445312 265.875 314.875 267.40625 C 313.457031 268.789062 315.601562 270.9375 317.054688 269.59375 C 319.8125 266.949219 319.929688 262.113281 316.980469 259.621094 C 317.09375 260.117188 317.246094 260.617188 317.363281 261.117188 C 318.203125 258.390625 317.363281 254.480469 314.71875 252.984375 L 315.488281 254.324219 C 315.753906 251.601562 314.605469 249.339844 312.15625 248.1875 C 310.738281 247.535156 310.546875 246.574219 309.703125 245.347656 C 308.863281 244.121094 307.558594 244.199219 306.527344 243.429688 C 305.570312 242.664062 304.917969 241.511719 303.617188 241.203125 C 303.082031 241.050781 302.734375 241.167969 302.429688 241.011719 C 301.816406 240.707031 301.394531 239.9375 300.859375 239.515625 C 299.632812 238.480469 298.445312 238.980469 297.070312 238.597656 C 295.765625 238.25 295 237.023438 293.585938 236.832031 C 292.28125 236.640625 291.441406 237.445312 290.328125 236.984375 C 289.179688 236.484375 288.183594 235.910156 286.921875 235.796875 C 285.695312 235.679688 284.585938 235.949219 283.398438 236.21875 C 282.289062 236.484375 281.371094 236.753906 280.222656 236.371094 C 279.417969 236.101562 278.765625 235.832031 277.847656 235.910156 C 277.121094 235.949219 276.390625 236.140625 275.742188 236.523438 C 274.898438 237.023438 275.050781 237.136719 274.132812 236.832031 C 272.640625 236.292969 271.300781 236.0625 269.730469 236.5625 C 269.039062 236.792969 268.464844 237.445312 267.851562 237.675781 C 267.242188 237.90625 266.820312 237.558594 266.089844 237.40625 C 264.558594 237.0625 262.914062 237.40625 261.648438 238.289062 C 260.769531 238.902344 260.425781 239.785156 259.277344 239.9375 C 258.355469 240.054688 257.476562 239.863281 256.558594 240.09375 C 254.679688 240.550781 253.648438 241.664062 252.308594 242.894531 C 251.160156 243.96875 249.242188 243.621094 247.867188 244.464844 C 246.371094 245.347656 245.375 246.730469 244.878906 248.378906 C 245.492188 248.035156 246.140625 247.648438 246.753906 247.304688 C 245.261719 247.074219 243.882812 247.226562 242.621094 248.070312 C 241.96875 248.496094 241.394531 249.070312 241.011719 249.722656 C 240.550781 250.449219 240.515625 251.140625 239.785156 251.601562 C 238.484375 252.445312 237.296875 252.792969 236.339844 254.171875 C 235.382812 255.554688 234.960938 257.085938 235.078125 258.699219 L 235.84375 257.355469 C 231.4375 260.578125 231.820312 265.679688 232.320312 270.59375 C 232.550781 272.816406 233.660156 274.582031 234.15625 276.691406 C 234.65625 278.726562 235.804688 280.03125 237.71875 280.835938 C 239.441406 281.410156 240.207031 278.457031 238.445312 277.726562 Z M 238.445312 277.726562 " fill-opacity="1" fill-rule="nonzero"/><g clip-path="url(#80be7a5adc)"><path fill="#543c2f" d="M 239.519531 281.371094 C 241.164062 283.097656 243.460938 283.980469 245.835938 283.75 C 245.375 283.484375 244.957031 283.253906 244.496094 282.984375 C 245.183594 284.097656 246.179688 284.902344 247.445312 285.246094 C 248.171875 285.4375 248.976562 285.515625 249.742188 285.4375 C 250.546875 285.402344 251.464844 285.054688 252.230469 285.285156 C 253.570312 285.667969 254.605469 286.167969 256.058594 286.054688 C 257.476562 285.9375 258.777344 285.476562 259.925781 284.59375 L 258.394531 284.59375 C 261.074219 286.207031 264.253906 286.589844 267.242188 285.632812 C 269.117188 285.015625 268.3125 282.0625 266.4375 282.675781 C 264.214844 283.40625 261.957031 283.175781 259.964844 281.949219 C 259.542969 281.679688 258.855469 281.640625 258.433594 281.949219 C 256.671875 283.289062 255.140625 283.0625 253.1875 282.332031 C 251.425781 281.679688 248.441406 283.40625 247.214844 281.410156 C 246.945312 280.988281 246.410156 280.605469 245.875 280.644531 C 244.265625 280.796875 242.847656 280.375 241.699219 279.1875 C 240.285156 277.765625 238.140625 279.953125 239.519531 281.371094 Z M 239.519531 281.371094 " fill-opacity="1" fill-rule="nonzero"/></g><path fill="#543c2f" d="M 270.535156 285.015625 C 271.683594 285.324219 272.871094 285.476562 274.054688 285.402344 C 274.554688 285.363281 275.089844 285.285156 275.585938 285.132812 C 275.972656 285.054688 276.429688 284.789062 276.8125 284.75 C 277.234375 284.75 277.847656 285.054688 278.304688 285.171875 C 278.804688 285.246094 279.339844 285.324219 279.839844 285.363281 C 280.71875 285.363281 281.597656 285.210938 282.363281 284.863281 C 282.75 284.671875 283.324219 284.402344 283.589844 284.058594 C 283.933594 283.867188 283.933594 283.75 283.628906 283.828125 C 283.324219 283.828125 283.359375 283.867188 283.742188 283.980469 C 284.507812 284.480469 285.734375 284.632812 286.617188 284.632812 C 288.492188 284.632812 290.253906 283.90625 291.632812 282.640625 C 291.019531 282.714844 290.40625 282.792969 289.792969 282.867188 C 292.320312 283.941406 294.960938 283.597656 297.070312 281.757812 C 298.5625 280.453125 296.378906 278.265625 294.886719 279.570312 C 293.929688 280.414062 292.511719 280.71875 291.324219 280.183594 C 290.675781 279.914062 290.023438 279.914062 289.488281 280.414062 C 288.375 281.449219 286.730469 281.832031 285.273438 281.257812 C 284.546875 280.988281 284.011719 280.605469 283.246094 280.757812 C 282.402344 280.875 281.980469 281.488281 281.292969 281.910156 C 279.839844 282.832031 278.34375 281.640625 276.851562 281.640625 C 276.046875 281.640625 275.359375 282.023438 274.59375 282.179688 C 273.519531 282.410156 272.449219 282.292969 271.375 282.023438 C 269.460938 281.527344 268.65625 284.480469 270.535156 285.015625 Z M 270.535156 285.015625 " fill-opacity="1" fill-rule="nonzero"/><path fill="#543c2f" d="M 299.097656 281.296875 C 301.433594 282.675781 304.648438 282.214844 306.410156 280.105469 C 305.914062 280.222656 305.414062 280.375 304.917969 280.492188 C 306.296875 280.835938 307.789062 280.875 309.128906 280.414062 C 310.46875 279.953125 311.734375 278.609375 311.121094 277.074219 C 310.507812 277.691406 309.859375 278.34375 309.246094 278.957031 C 310.890625 279.261719 312.5 278.6875 313.609375 277.460938 C 314.71875 276.230469 315.21875 274.621094 315.601562 273.046875 C 316.0625 271.128906 313.113281 270.324219 312.652344 272.242188 C 312.421875 273.199219 312.195312 274.238281 311.617188 275.082031 C 311.3125 275.542969 310.660156 276.117188 310.050781 276 C 309.015625 275.808594 307.714844 276.691406 308.171875 277.882812 C 308.097656 277.726562 308.480469 277.496094 308.324219 277.421875 C 308.210938 277.382812 307.675781 277.613281 307.558594 277.613281 C 306.949219 277.691406 306.335938 277.613281 305.722656 277.496094 C 305.222656 277.382812 304.574219 277.496094 304.230469 277.882812 C 303.273438 278.996094 301.816406 279.300781 300.628906 278.609375 C 298.945312 277.652344 297.414062 280.296875 299.097656 281.296875 Z M 299.097656 281.296875 " fill-opacity="1" fill-rule="nonzero"/><path fill="#543c2f" d="M 179.210938 157.648438 C 178.980469 156.378906 179.132812 155.078125 179.671875 153.925781 C 180.054688 153.15625 180.664062 152.46875 180.894531 151.625 C 181.203125 150.585938 181.050781 149.476562 181.316406 148.402344 C 181.585938 147.328125 182.082031 146.214844 182.542969 145.179688 C 183.308594 143.488281 184.761719 142.378906 185.566406 140.765625 C 186.484375 138.925781 186.332031 136.699219 187.136719 134.820312 C 187.941406 132.941406 188.976562 131.867188 190.546875 130.601562 C 192.152344 129.296875 193.300781 128.414062 194.222656 126.496094 C 196.058594 122.621094 199.082031 118.898438 203.679688 118.628906 C 204.175781 118.589844 204.789062 118.359375 205.019531 117.863281 C 205.859375 116.058594 207.660156 114.753906 209.726562 114.910156 C 210.761719 114.984375 211.71875 115.5625 212.792969 115.332031 C 213.632812 115.140625 214.207031 114.371094 215.050781 114.21875 C 216.8125 113.910156 217.617188 116.328125 219.222656 116.863281 C 221.292969 117.554688 222.707031 118.976562 221.789062 121.316406 C 221.523438 121.96875 221.980469 122.695312 222.480469 123.042969 C 223.894531 124 224.777344 125.652344 224.625 127.378906 C 224.546875 128.71875 224.085938 129.792969 224.355469 131.175781 C 224.585938 132.289062 224.96875 133.015625 224.660156 134.167969 C 224.46875 134.820312 224.277344 135.394531 224.203125 136.085938 C 224.011719 137.429688 224.738281 140.113281 223.476562 141.074219 C 222.707031 141.648438 222.402344 142.722656 223.167969 143.488281 C 223.820312 144.140625 222.515625 146.675781 222.441406 147.480469 C 222.363281 148.4375 223.054688 150.816406 222.097656 151.46875 C 221.292969 152.007812 221.0625 153.15625 221.789062 153.886719 C 222.171875 154.269531 221.214844 155.804688 221.0625 156.226562 C 220.792969 156.996094 220.832031 157.722656 220.832031 158.527344 C 220.792969 160.292969 219.796875 161.75 218.113281 162.328125 C 216.238281 162.941406 217.042969 165.933594 218.917969 165.28125 C 221.523438 164.398438 223.476562 162.289062 223.820312 159.527344 C 223.894531 158.796875 223.820312 158.03125 223.972656 157.300781 C 224.164062 156.574219 224.625 155.921875 224.816406 155.152344 C 225.160156 153.886719 224.890625 152.621094 223.933594 151.699219 C 223.820312 152.507812 223.742188 153.3125 223.628906 154.117188 C 225.964844 152.582031 225.390625 150.511719 225.464844 148.09375 C 225.542969 145.601562 227.535156 143.566406 225.3125 141.339844 C 225.199219 142.148438 225.121094 142.953125 225.007812 143.757812 C 226.574219 142.570312 227.152344 140.957031 227.1875 139 C 227.226562 137.542969 227.226562 136.394531 227.609375 135.011719 C 227.917969 133.859375 227.917969 132.824219 227.648438 131.675781 C 227.34375 130.332031 227.417969 129.488281 227.570312 128.144531 C 227.6875 127.183594 227.6875 126.265625 227.457031 125.304688 C 226.996094 123.234375 225.695312 121.582031 223.972656 120.394531 C 224.203125 120.96875 224.433594 121.546875 224.660156 122.121094 C 225.617188 119.703125 224.777344 116.863281 222.824219 115.214844 C 221.75 114.332031 220.257812 114.257812 219.378906 113.257812 C 218.496094 112.261719 217.65625 111.53125 216.3125 111.265625 C 215.089844 110.996094 214.015625 111.265625 212.867188 111.761719 C 212.027344 112.144531 211.679688 112.144531 210.761719 111.992188 C 210.035156 111.878906 209.34375 111.839844 208.617188 111.878906 C 205.898438 112.144531 203.449219 113.835938 202.261719 116.328125 L 203.601562 115.5625 C 199.238281 115.789062 195.214844 118.476562 192.917969 122.199219 C 192.269531 123.234375 191.808594 124.382812 191.234375 125.457031 C 190.621094 126.648438 189.742188 127.222656 188.746094 128.027344 C 186.945312 129.449219 185.796875 130.5625 184.726562 132.632812 C 183.613281 134.703125 183.730469 137.042969 182.847656 139.15625 C 182.390625 140.230469 181.277344 141.035156 180.664062 142.03125 C 180.128906 142.914062 179.707031 143.875 179.324219 144.832031 C 178.867188 145.945312 178.367188 147.097656 178.140625 148.246094 C 177.871094 149.550781 177.984375 150.585938 177.257812 151.777344 C 176.03125 153.847656 175.726562 156.074219 176.148438 158.414062 C 176.570312 160.410156 179.515625 159.601562 179.210938 157.648438 Z M 179.210938 157.648438 " fill-opacity="1" fill-rule="nonzero"/><path fill="#543c2f" d="M 182.542969 162.136719 C 183.15625 163.363281 184.265625 164.246094 185.644531 164.550781 C 186.523438 164.746094 187.214844 164.398438 188.09375 164.4375 C 188.820312 164.476562 189.28125 165.011719 189.816406 165.394531 C 192.191406 167.046875 195.332031 167.390625 198.050781 166.46875 C 197.667969 166.433594 197.246094 166.355469 196.863281 166.316406 C 197.820312 166.894531 198.816406 167.429688 199.964844 167.542969 C 201.113281 167.660156 201.957031 167.238281 203.066406 167.582031 C 205.285156 168.273438 207.203125 168.3125 209.34375 167.351562 C 210.109375 167.007812 210.265625 165.894531 209.882812 165.242188 C 209.421875 164.4375 208.542969 164.359375 207.777344 164.707031 C 205.476562 165.703125 203.601562 163.976562 201.34375 164.320312 C 200.230469 164.476562 199.734375 164.398438 198.738281 163.863281 C 197.589844 163.246094 196.976562 163.707031 195.753906 163.863281 C 193.722656 164.09375 192.152344 163.285156 190.582031 162.171875 C 189.664062 161.523438 188.785156 161.253906 187.671875 161.40625 C 186.5625 161.558594 185.757812 161.75 185.183594 160.601562 C 184.304688 158.835938 181.660156 160.371094 182.542969 162.136719 Z M 182.542969 162.136719 " fill-opacity="1" fill-rule="nonzero"/><path fill="#543c2f" d="M 273.40625 193.402344 C 273.328125 192.828125 274.285156 192.058594 274.628906 191.597656 C 275.011719 191.023438 275.320312 190.449219 275.625 189.796875 C 276.316406 188.300781 276.929688 186.878906 278 185.652344 C 279.070312 184.425781 280.414062 183.542969 281.636719 182.507812 C 282.824219 181.507812 283.207031 180.089844 284.242188 179.015625 C 285.238281 178.019531 286.652344 177.480469 287.839844 176.753906 C 288.914062 176.101562 290.175781 174.640625 291.441406 174.527344 C 292.089844 174.449219 292.664062 174.871094 293.355469 174.835938 C 293.96875 174.796875 294.503906 174.488281 295 174.183594 C 295.730469 173.722656 296.1875 173.183594 297.070312 173.222656 C 297.835938 173.222656 298.332031 173.796875 299.136719 173.875 C 300.515625 173.988281 301.242188 172.648438 302.582031 173.835938 C 303.691406 174.835938 303.921875 176.558594 305.070312 177.480469 C 305.53125 177.863281 305.992188 177.941406 306.566406 178.019531 C 307.523438 178.210938 307.675781 178.324219 307.980469 179.207031 C 308.480469 180.589844 309.09375 182.738281 308.863281 184.195312 C 308.746094 184.847656 308.441406 185.382812 308.671875 186.074219 C 308.785156 186.496094 309.320312 186.84375 309.4375 187.265625 C 309.550781 187.722656 309.09375 188.300781 308.9375 188.796875 C 308.671875 189.566406 308.59375 190.332031 308.59375 191.175781 C 308.59375 192.019531 308.59375 192.636719 308.097656 193.363281 C 307.789062 193.785156 307.40625 194.09375 307.214844 194.554688 C 307.023438 195.015625 306.871094 195.4375 306.910156 195.933594 C 306.949219 196.472656 307.292969 196.894531 307.214844 197.355469 C 307.101562 197.929688 306.335938 198.542969 306.066406 199.082031 C 305.800781 199.617188 305.644531 200.191406 305.644531 200.808594 C 305.609375 201.652344 305.644531 202.113281 305.261719 202.839844 C 304.957031 203.414062 304.648438 203.800781 304.726562 204.488281 C 304.765625 204.757812 304.957031 205.066406 304.957031 205.296875 C 304.957031 205.792969 305.1875 204.71875 304.648438 205.871094 C 304.34375 206.523438 304.191406 207.136719 304.074219 207.828125 C 303.921875 208.632812 303.882812 209.363281 303.273438 209.976562 C 302.621094 210.589844 301.546875 210.820312 300.746094 211.089844 C 298.867188 211.664062 299.671875 214.617188 301.546875 214.042969 C 302.890625 213.621094 304.34375 213.121094 305.417969 212.125 C 306.871094 210.78125 306.601562 209.246094 307.214844 207.558594 C 307.523438 206.753906 308.058594 206.292969 308.058594 205.371094 C 308.058594 204.988281 307.90625 204.683594 307.867188 204.335938 C 307.90625 204.566406 307.367188 205.066406 308.019531 204.453125 C 309.320312 203.1875 308.324219 201.265625 309.285156 199.886719 C 310.125 198.621094 310.507812 197.929688 310.394531 196.394531 C 310.316406 195.667969 310.507812 195.472656 310.96875 194.859375 C 311.542969 194.09375 311.773438 193.324219 311.8125 192.367188 C 311.886719 191.371094 311.734375 190.488281 312.078125 189.527344 C 312.308594 188.835938 312.652344 188.300781 312.691406 187.53125 C 312.769531 186.804688 312.5 186.382812 312.269531 185.730469 C 311.964844 184.960938 312.15625 184.425781 312.117188 183.582031 C 312.039062 181.929688 311.582031 180.011719 311.082031 178.441406 C 310.625 177.058594 309.859375 175.679688 308.402344 175.21875 C 308.132812 175.140625 307.558594 175.179688 307.332031 175.0625 C 306.910156 174.835938 306.792969 174.488281 306.527344 173.988281 C 306.144531 173.335938 305.800781 172.722656 305.300781 172.148438 C 304.230469 170.921875 302.660156 170 300.972656 170.230469 C 300.589844 170.269531 299.367188 170.765625 299.441406 170.804688 C 299.519531 170.804688 298.292969 170.117188 297.871094 170.039062 C 297.144531 169.921875 296.496094 170.078125 295.804688 170.308594 C 295 170.574219 294.082031 171.613281 293.316406 171.765625 C 292.820312 171.878906 291.976562 171.382812 291.363281 171.417969 C 290.558594 171.496094 289.832031 171.839844 289.144531 172.226562 C 287.609375 173.109375 286.269531 174.21875 284.699219 175.0625 C 283.054688 175.984375 281.789062 177.058594 280.832031 178.707031 C 279.761719 180.628906 277.617188 181.664062 276.125 183.234375 C 274.628906 184.808594 273.863281 186.613281 272.945312 188.53125 C 272.140625 190.140625 270.265625 191.445312 270.457031 193.402344 C 270.648438 195.359375 273.597656 195.359375 273.40625 193.402344 Z M 273.40625 193.402344 " fill-opacity="1" fill-rule="nonzero"/><path fill="#543c2f" d="M 277.347656 205.140625 C 278.765625 207.636719 281.484375 208.785156 284.242188 208.363281 C 283.628906 207.75 282.976562 207.097656 282.363281 206.484375 C 282.019531 207.789062 282.441406 209.132812 283.4375 210.054688 C 283.933594 210.476562 284.507812 210.78125 285.121094 210.972656 C 285.390625 211.050781 285.734375 211.050781 285.964844 211.164062 C 286.308594 211.320312 286.234375 211.242188 286.460938 211.625 C 287.917969 213.773438 290.789062 214.503906 292.511719 212.203125 L 289.871094 212.203125 C 291.554688 214.847656 295.039062 216.152344 298.027344 214.964844 C 298.792969 214.65625 299.328125 213.925781 299.097656 213.082031 C 298.90625 212.355469 297.988281 211.703125 297.222656 212.007812 C 295.535156 212.699219 293.546875 212.238281 292.511719 210.667969 C 291.859375 209.628906 290.558594 209.746094 289.871094 210.667969 C 289.984375 210.550781 289.832031 210.628906 289.71875 210.589844 C 289.527344 210.550781 289.410156 210.398438 289.296875 210.28125 C 288.835938 209.824219 288.644531 209.207031 288.109375 208.785156 C 287.535156 208.328125 286.882812 208.289062 286.195312 208.097656 C 285.847656 208.019531 285.121094 207.789062 285.273438 207.328125 C 285.621094 206.101562 284.507812 205.257812 283.398438 205.449219 C 282.019531 205.640625 280.640625 204.835938 279.992188 203.644531 C 279.035156 201.882812 276.390625 203.414062 277.347656 205.140625 Z M 277.347656 205.140625 " fill-opacity="1" fill-rule="nonzero"/><path fill="#543c2f" d="M 99.605469 226.28125 C 102.785156 227.164062 105.234375 229.847656 105.578125 233.1875 C 105.695312 234.414062 106.765625 235.027344 107.875 234.53125 C 110.019531 233.570312 110.59375 237.367188 110.785156 238.597656 C 110.863281 239.132812 111.398438 239.515625 111.859375 239.671875 C 113.695312 240.285156 114.421875 242.585938 113.503906 244.234375 C 113.121094 244.886719 113.273438 246 114.039062 246.347656 C 116.605469 247.457031 114.921875 250.527344 113.964844 252.214844 C 113.542969 252.984375 113.886719 254.324219 114.882812 254.480469 C 116.414062 254.710938 113.542969 258.546875 113.199219 258.851562 C 112.125 259.964844 110.824219 260.734375 109.332031 261.230469 C 107.453125 261.84375 108.257812 264.800781 110.136719 264.183594 C 113.082031 263.226562 115.648438 261.308594 117.179688 258.585938 C 118.445312 256.320312 119.285156 252.023438 115.648438 251.523438 C 115.957031 252.292969 116.261719 253.019531 116.566406 253.789062 C 118.328125 250.71875 119.859375 245.578125 115.535156 243.738281 C 115.726562 244.425781 115.917969 245.117188 116.070312 245.847656 C 118.023438 242.394531 116.300781 238.058594 112.585938 236.792969 C 112.929688 237.136719 113.3125 237.523438 113.65625 237.867188 C 113.121094 234.144531 110.554688 230.039062 106.269531 231.960938 C 107.035156 232.382812 107.800781 232.839844 108.566406 233.300781 C 108.066406 228.621094 104.925781 224.707031 100.332031 223.441406 C 98.53125 222.789062 97.730469 225.742188 99.605469 226.28125 Z M 99.605469 226.28125 " fill-opacity="1" fill-rule="nonzero"/><path fill="#543c2f" d="M 43.28125 265.644531 C 44.429688 269.671875 48.488281 272.050781 52.585938 271.246094 C 52.011719 271.015625 51.4375 270.785156 50.863281 270.554688 C 52.699219 273.46875 55.953125 274.699219 59.246094 273.816406 C 60.96875 273.355469 62.808594 274.351562 64.644531 274.121094 C 66.40625 273.890625 67.863281 273.125 69.164062 271.972656 L 66.980469 271.972656 C 69.546875 274.46875 73.566406 274.46875 76.132812 271.972656 L 74.296875 272.203125 C 75.636719 273.046875 77.128906 273.429688 78.699219 273.238281 C 79.503906 273.164062 80.308594 272.933594 81.035156 272.550781 C 81.300781 272.394531 81.722656 272.203125 81.914062 271.933594 C 82.296875 271.4375 81.839844 271.703125 81.992188 271.820312 C 85.015625 273.929688 88.117188 271.820312 90.222656 269.519531 C 89.613281 269.59375 89 269.671875 88.347656 269.75 C 91.410156 271.78125 95.507812 270.785156 97.460938 267.753906 C 96.773438 267.945312 96.082031 268.136719 95.355469 268.289062 C 97.691406 269.785156 100.449219 269.632812 102.667969 268.023438 C 103.855469 267.179688 104.925781 267.253906 106.191406 266.792969 C 107.453125 266.332031 108.375 265.453125 109.140625 264.378906 C 110.289062 262.765625 107.644531 261.230469 106.496094 262.84375 C 105.347656 264.414062 103.472656 263.878906 101.941406 264.761719 C 100.179688 265.796875 98.953125 266.984375 96.886719 265.644531 C 96.160156 265.183594 95.238281 265.527344 94.78125 266.179688 C 93.671875 267.867188 91.488281 268.175781 89.878906 267.101562 C 89.34375 266.753906 88.460938 266.871094 88.003906 267.332031 C 87.199219 268.214844 86.128906 269.59375 84.824219 269.632812 C 83.753906 269.671875 83.101562 268.597656 82.03125 268.558594 C 80.957031 268.519531 80.34375 269.441406 79.425781 269.902344 C 78.199219 270.476562 76.9375 270.285156 75.828125 269.554688 C 75.253906 269.171875 74.449219 269.328125 73.988281 269.785156 C 72.609375 271.089844 70.542969 271.089844 69.164062 269.785156 C 68.550781 269.171875 67.632812 269.210938 66.980469 269.785156 C 66.023438 270.628906 64.800781 271.128906 63.496094 271.089844 C 62.234375 271.050781 61.160156 270.402344 59.898438 270.476562 C 58.75 270.554688 57.792969 271.128906 56.644531 271.015625 C 55.304688 270.859375 54.191406 270.132812 53.464844 268.980469 C 53.082031 268.367188 52.429688 268.136719 51.742188 268.289062 C 49.292969 268.789062 46.917969 267.214844 46.230469 264.835938 C 45.691406 262.917969 42.742188 263.726562 43.28125 265.644531 Z M 43.28125 265.644531 " fill-opacity="1" fill-rule="nonzero"/><path fill="#543c2f" d="M 168.03125 216.152344 C 168.871094 214.695312 169.292969 212.816406 168.71875 211.164062 C 168.488281 210.4375 168.105469 209.898438 167.457031 209.476562 C 166.691406 209.015625 165.65625 208.785156 164.777344 208.75 C 163.894531 208.710938 163.050781 209.054688 162.285156 209.4375 C 161.597656 209.785156 160.90625 210.128906 160.296875 210.628906 C 159.53125 211.203125 158.917969 211.816406 158.496094 212.699219 C 158.035156 213.621094 157.613281 214.542969 157.15625 215.425781 C 156.3125 217.148438 155.546875 219.070312 156.3125 220.988281 C 157.15625 223.058594 159.300781 223.902344 161.367188 223.097656 C 163.050781 222.445312 164.585938 221.292969 165.769531 219.949219 C 166.957031 218.609375 168.222656 216.726562 168.335938 214.847656 C 168.488281 212.585938 166.574219 210.742188 164.316406 211.28125 C 162.632812 211.664062 161.0625 213.046875 159.949219 214.351562 C 158.878906 215.617188 157.882812 217.226562 157.578125 218.875 C 157.386719 219.796875 157.421875 220.757812 157.921875 221.601562 C 158.457031 222.519531 159.53125 223.019531 160.5625 222.90625 C 162.476562 222.714844 164.007812 221.023438 165.121094 219.527344 C 166.230469 218.03125 166.996094 216.34375 167.148438 214.578125 C 167.265625 213.542969 166.917969 212.46875 166 211.894531 C 165.082031 211.320312 163.933594 211.472656 163.089844 212.085938 C 162.210938 212.699219 161.710938 213.621094 161.328125 214.617188 C 161.136719 215.078125 161.0625 215.617188 161.023438 216.113281 C 160.984375 216.535156 161.0625 215.882812 161.175781 215.769531 C 161.136719 215.808594 161.097656 215.882812 161.097656 215.960938 C 160.5625 216.765625 160.027344 217.574219 159.53125 218.378906 C 159.300781 218.722656 159.070312 219.105469 158.957031 219.527344 C 158.648438 220.71875 159.722656 221.832031 160.90625 221.484375 C 161.867188 221.21875 162.632812 220.371094 163.320312 219.722656 C 163.933594 219.144531 164.546875 218.53125 165.195312 217.957031 C 165.886719 217.304688 166.382812 216.382812 166.5 215.425781 C 166.613281 214.617188 166.308594 213.773438 165.425781 213.542969 C 164.699219 213.351562 163.664062 213.773438 163.550781 214.617188 C 163.511719 214.847656 163.472656 215.078125 163.398438 215.308594 C 163.472656 215.117188 163.128906 215.730469 163.28125 215.539062 C 163.128906 215.769531 162.859375 215.921875 162.667969 216.113281 C 162.363281 216.382812 162.058594 216.691406 161.75 216.996094 C 161.328125 217.378906 160.945312 217.800781 160.523438 218.1875 C 160.410156 218.261719 160.332031 218.378906 160.21875 218.453125 C 159.914062 218.722656 160.371094 218.378906 160.179688 218.492188 C 160.105469 218.53125 159.988281 218.570312 159.949219 218.648438 C 159.796875 218.722656 159.875 218.683594 160.179688 218.570312 C 159.796875 218.683594 160.140625 218.722656 161.214844 218.722656 L 161.75 219.261719 L 161.941406 220.027344 C 161.941406 220.179688 161.867188 220.488281 161.789062 220.566406 C 161.867188 220.488281 161.902344 220.371094 161.941406 220.296875 C 162.09375 220.027344 162.25 219.796875 162.402344 219.527344 C 162.746094 218.992188 163.128906 218.453125 163.472656 217.878906 C 163.589844 217.726562 163.664062 217.535156 163.78125 217.378906 C 164.007812 216.921875 164.007812 216.460938 164.085938 216.039062 C 164.125 215.808594 164.199219 215.578125 164.277344 215.425781 C 164.355469 215.269531 164.429688 215.15625 164.507812 215 C 164.507812 215 164.699219 214.734375 164.546875 214.886719 C 164.621094 214.808594 164.699219 214.734375 164.777344 214.65625 C 164.660156 214.808594 164.8125 214.578125 164.851562 214.617188 C 164.851562 214.617188 164.660156 214.65625 164.660156 214.65625 C 164.316406 214.542969 164.199219 214.464844 164.046875 214.15625 C 164.085938 214.234375 164.085938 214.351562 164.046875 214.464844 C 164.085938 214.273438 164.007812 214.617188 164.007812 214.65625 C 163.972656 214.808594 163.933594 214.964844 163.894531 215.078125 C 163.742188 215.578125 163.589844 216 163.433594 216.382812 C 162.976562 217.34375 162.441406 218.109375 161.75 218.839844 C 161.40625 219.222656 161.0625 219.527344 160.714844 219.722656 C 160.601562 219.796875 160.523438 219.835938 160.410156 219.875 C 160.488281 219.835938 160.5625 219.835938 160.296875 219.914062 C 160.488281 219.875 160.257812 219.949219 160.21875 219.914062 C 160.257812 219.914062 160.410156 219.988281 160.488281 219.988281 C 160.792969 220.066406 160.410156 220.105469 160.488281 219.988281 L 160.523438 220.105469 C 160.488281 219.949219 160.488281 219.914062 160.488281 220.027344 C 160.449219 220.257812 160.523438 219.375 160.488281 219.757812 C 160.5625 219.375 160.753906 218.761719 160.871094 218.570312 C 161.636719 216.804688 162.976562 215.15625 164.699219 214.425781 C 164.851562 214.351562 165.042969 214.351562 165.121094 214.3125 C 165.273438 214.273438 165.195312 214.351562 165.121094 214.3125 C 164.96875 214.273438 165.003906 214.121094 165.121094 214.351562 C 165.082031 214.273438 165.082031 214.195312 165.160156 214.425781 C 165.121094 214.351562 165.082031 214.195312 165.195312 214.503906 C 165.273438 214.734375 165.234375 214.65625 165.234375 214.542969 C 165.234375 214.617188 165.234375 214.886719 165.234375 214.925781 C 165.082031 215.808594 164.394531 216.882812 163.894531 217.496094 C 163.28125 218.300781 162.476562 219.03125 161.75 219.527344 C 161.328125 219.796875 160.871094 220.105469 160.410156 220.296875 C 160.21875 220.371094 159.949219 220.449219 159.722656 220.488281 C 159.722656 220.488281 159.261719 220.449219 159.492188 220.449219 C 159.375 220.449219 159.300781 220.335938 159.453125 220.449219 C 159.375 220.410156 159.300781 220.296875 159.261719 220.257812 C 159.414062 220.449219 159.222656 220.179688 159.183594 220.144531 C 159.070312 219.949219 159.222656 220.335938 159.148438 220.105469 C 159.109375 219.988281 159.070312 219.875 159.03125 219.722656 C 159.03125 219.683594 158.992188 219.414062 159.03125 219.683594 C 159.03125 219.414062 159.03125 219.222656 159.070312 218.992188 C 159.300781 217.839844 159.949219 216.804688 160.449219 215.769531 C 160.753906 215.15625 161.023438 214.542969 161.367188 213.925781 C 161.519531 213.660156 161.445312 213.8125 161.40625 213.851562 C 161.519531 213.734375 161.636719 213.621094 161.75 213.503906 C 161.980469 213.277344 161.980469 213.277344 162.25 213.121094 C 162.707031 212.816406 163.207031 212.546875 163.703125 212.316406 C 163.816406 212.277344 163.894531 212.203125 164.007812 212.164062 C 164.316406 212.007812 164.007812 212.164062 164.238281 212.085938 C 164.316406 212.046875 164.429688 212.046875 164.507812 212.007812 C 164.8125 211.933594 164.316406 211.972656 164.621094 212.007812 C 164.585938 212.007812 165.042969 212.046875 164.851562 212.007812 C 164.699219 211.972656 165.121094 212.085938 165.160156 212.085938 C 165.3125 212.125 165.464844 212.164062 165.578125 212.203125 C 165.617188 212.203125 165.925781 212.316406 165.769531 212.238281 C 166 212.316406 165.886719 212.355469 165.769531 212.164062 C 165.578125 211.855469 165.734375 212.085938 165.734375 212.164062 C 165.734375 212.203125 165.886719 212.46875 165.769531 212.203125 C 165.65625 211.933594 165.769531 212.277344 165.808594 212.355469 C 165.847656 212.429688 165.847656 212.507812 165.847656 212.585938 C 165.925781 212.929688 165.847656 212.546875 165.886719 212.660156 C 165.886719 212.890625 165.925781 213.160156 165.886719 213.390625 C 165.886719 213.660156 165.925781 213.199219 165.886719 213.46875 C 165.847656 213.660156 165.808594 213.8125 165.769531 214.003906 C 165.695312 214.3125 165.542969 214.542969 165.386719 214.847656 C 164.394531 216.34375 167.035156 217.878906 168.03125 216.152344 Z M 168.03125 216.152344 " fill-opacity="1" fill-rule="nonzero"/><path fill="#543c2f" d="M 212.484375 241.472656 C 213.328125 240.015625 213.710938 238.210938 213.210938 236.5625 C 212.984375 235.871094 212.675781 235.296875 212.0625 234.875 C 211.335938 234.375 210.339844 234.144531 209.460938 234.070312 C 207.929688 233.914062 206.320312 234.835938 205.09375 235.640625 C 204.367188 236.140625 203.679688 236.714844 203.179688 237.484375 C 202.683594 238.25 202.339844 239.171875 201.957031 239.976562 C 201.113281 241.742188 200.117188 243.582031 200.578125 245.617188 C 201.035156 247.613281 202.835938 248.878906 204.867188 248.570312 C 206.589844 248.300781 208.273438 247.113281 209.5 245.921875 C 210.800781 244.695312 211.871094 243.160156 212.523438 241.511719 C 213.25 239.632812 212.675781 237.253906 210.648438 236.523438 C 208.769531 235.832031 206.742188 237.332031 205.441406 238.519531 C 204.136719 239.707031 203.21875 241.089844 202.566406 242.664062 C 201.957031 244.160156 201.609375 246.152344 202.988281 247.382812 C 204.710938 248.917969 206.894531 247.648438 208.273438 246.347656 C 209.574219 245.117188 210.53125 243.582031 211.183594 241.933594 C 211.835938 240.285156 212.292969 237.789062 210.265625 236.90625 C 208.121094 235.988281 206.433594 238.175781 205.859375 239.9375 C 205.707031 240.359375 205.554688 240.9375 205.59375 241.359375 C 205.59375 241.589844 205.59375 241.320312 205.632812 241.242188 C 205.632812 241.242188 205.824219 240.898438 205.746094 240.976562 C 205.707031 241.011719 205.667969 241.128906 205.632812 241.167969 C 205.402344 241.550781 205.132812 241.933594 204.867188 242.316406 C 204.214844 243.277344 203.179688 244.621094 204.253906 245.695312 C 205.441406 246.882812 206.894531 245.617188 207.8125 244.8125 C 208.503906 244.234375 209.191406 243.660156 209.84375 243.007812 C 210.496094 242.355469 210.953125 241.472656 211.105469 240.554688 C 211.222656 239.746094 210.914062 238.902344 210.035156 238.671875 C 209.308594 238.480469 208.273438 238.902344 208.160156 239.746094 C 208.042969 240.515625 207.929688 240.667969 207.355469 241.167969 C 207.085938 241.398438 206.816406 241.628906 206.550781 241.894531 C 206.167969 242.242188 205.785156 242.585938 205.402344 242.894531 C 205.324219 242.96875 204.980469 243.199219 205.324219 242.929688 C 205.25 242.96875 205.171875 243.046875 205.09375 243.085938 C 205.019531 243.125 204.941406 243.160156 204.902344 243.199219 C 204.75 243.277344 204.828125 243.238281 205.09375 243.125 C 204.710938 243.238281 205.058594 243.277344 206.089844 243.277344 L 206.625 243.8125 C 206.703125 244.082031 206.78125 244.351562 206.816406 244.582031 C 206.816406 244.695312 206.742188 245.042969 206.703125 245.078125 C 206.78125 245.003906 206.816406 244.847656 206.894531 244.773438 C 207.046875 244.503906 207.238281 244.234375 207.429688 243.96875 C 207.738281 243.507812 208.082031 243.046875 208.351562 242.546875 C 208.542969 242.203125 208.578125 241.703125 208.617188 241.472656 C 208.695312 240.898438 208.847656 240.550781 209.117188 240.09375 C 209.230469 239.863281 209.230469 239.902344 209.152344 239.976562 C 209.230469 239.902344 209.308594 239.824219 209.382812 239.746094 C 209.269531 239.902344 209.421875 239.671875 209.460938 239.707031 C 209.421875 239.707031 209.269531 239.746094 209.191406 239.707031 C 208.925781 239.671875 208.886719 239.480469 208.734375 239.363281 L 208.65625 239.210938 C 208.695312 239.402344 208.695312 239.402344 208.695312 239.25 C 208.695312 239.363281 208.695312 239.480469 208.695312 239.554688 C 208.695312 239.324219 208.65625 239.632812 208.65625 239.707031 C 208.195312 241.625 207.164062 243.351562 205.59375 244.621094 C 205.632812 244.582031 205.25 244.847656 205.171875 244.886719 C 205.132812 244.886719 204.789062 245.078125 204.980469 245.003906 C 204.636719 245.15625 204.867188 244.964844 204.902344 245.003906 C 204.941406 245.042969 205.058594 245.117188 205.09375 245.15625 C 205.285156 245.273438 204.941406 245.003906 205.09375 245.15625 C 205.132812 245.273438 205.132812 245.234375 205.09375 245.078125 C 205.09375 245.234375 205.09375 245.234375 205.09375 245.117188 C 205.09375 245.003906 205.09375 244.925781 205.09375 244.8125 C 205.09375 244.542969 205.058594 245.003906 205.09375 244.773438 C 205.132812 244.542969 205.210938 244.3125 205.285156 244.082031 C 205.441406 243.621094 205.554688 243.351562 205.824219 242.894531 C 206.320312 242.011719 206.78125 241.433594 207.546875 240.707031 C 208.042969 240.246094 208.960938 239.441406 209.613281 239.363281 C 209.84375 239.363281 209.84375 239.363281 209.765625 239.363281 L 209.691406 239.324219 C 209.613281 239.25 209.613281 239.25 209.691406 239.324219 C 209.691406 239.324219 209.765625 239.402344 209.765625 239.441406 C 209.804688 239.515625 209.84375 239.824219 209.804688 239.554688 C 209.804688 239.671875 209.804688 239.824219 209.804688 239.9375 C 209.804688 240.015625 209.691406 240.359375 209.652344 240.476562 C 209.308594 241.359375 208.695312 242.242188 208.121094 242.855469 C 207.394531 243.660156 206.703125 244.234375 205.859375 244.773438 C 205.441406 245.003906 205.058594 245.234375 204.597656 245.386719 C 204.40625 245.425781 204.292969 245.464844 204.136719 245.464844 C 204.292969 245.464844 203.714844 245.425781 204.0625 245.464844 L 203.945312 245.386719 C 204.023438 245.464844 204.0625 245.464844 203.945312 245.386719 C 203.910156 245.347656 203.714844 245.15625 203.832031 245.273438 C 203.945312 245.425781 203.679688 245.042969 203.714844 245.042969 C 203.832031 245.234375 203.640625 244.734375 203.601562 244.695312 C 203.523438 244.390625 203.601562 244.582031 203.601562 244.65625 C 203.601562 244.542969 203.601562 244.464844 203.601562 244.351562 C 203.601562 244.121094 203.679688 243.851562 203.753906 243.582031 C 204.101562 242.472656 204.710938 241.398438 205.210938 240.359375 C 205.441406 239.902344 205.746094 239.132812 205.976562 238.828125 C 206.207031 238.519531 206.589844 238.25 207.007812 237.980469 C 207.429688 237.714844 207.929688 237.484375 208.386719 237.253906 C 208.3125 237.292969 208.886719 237.0625 208.695312 237.101562 C 208.578125 237.136719 208.925781 237.023438 208.925781 237.023438 C 209 236.984375 209.117188 236.984375 209.191406 236.945312 C 208.847656 237.023438 209.230469 236.984375 209.308594 236.984375 C 209.574219 236.984375 209.421875 236.984375 209.34375 236.984375 C 209.535156 237.023438 209.691406 237.0625 209.882812 237.101562 C 209.996094 237.136719 210.109375 237.175781 210.226562 237.175781 C 210.300781 237.175781 210.417969 237.214844 210.457031 237.292969 C 210.417969 237.214844 210.226562 237.101562 210.226562 237.023438 C 210.226562 237.023438 210.300781 237.175781 210.339844 237.175781 C 210.417969 237.328125 210.300781 237.214844 210.300781 237.023438 C 210.300781 237.101562 210.378906 237.214844 210.378906 237.328125 C 210.378906 237.40625 210.417969 237.484375 210.417969 237.558594 C 210.496094 237.867188 210.417969 237.292969 210.417969 237.675781 C 210.417969 237.90625 210.417969 238.175781 210.417969 238.441406 C 210.417969 238.367188 210.457031 238.210938 210.417969 238.519531 C 210.378906 238.671875 210.339844 238.828125 210.300781 238.941406 C 210.226562 239.25 210.074219 239.476562 209.917969 239.785156 C 208.847656 241.628906 211.488281 243.199219 212.484375 241.472656 Z M 212.484375 241.472656 " fill-opacity="1" fill-rule="nonzero"/><path fill="#543c2f" d="M 159.988281 236.371094 C 162.324219 240.324219 165.386719 244.003906 169.675781 245.769531 C 175.265625 248.070312 182.234375 248.339844 187.902344 246.152344 C 189.742188 245.425781 188.9375 242.472656 187.097656 243.199219 C 182.007812 245.195312 175.878906 245.042969 170.824219 242.96875 C 167.148438 241.472656 164.585938 238.175781 162.632812 234.835938 C 161.675781 233.109375 158.992188 234.644531 159.988281 236.371094 Z M 159.988281 236.371094 " fill-opacity="1" fill-rule="nonzero"/><path fill="#543c2f" d="M 117.449219 254.019531 C 149.804688 254.019531 182.160156 254.019531 214.476562 254.019531 C 223.667969 254.019531 232.816406 254.019531 241.96875 254.019531 C 243.960938 254.019531 243.960938 250.949219 241.96875 250.949219 C 209.613281 250.949219 177.257812 250.949219 144.941406 250.949219 C 135.75 250.949219 126.601562 250.949219 117.449219 250.949219 C 115.457031 250.949219 115.457031 254.019531 117.449219 254.019531 Z M 117.449219 254.019531 " fill-opacity="1" fill-rule="nonzero"/></svg>