<svg xmlns="http://www.w3.org/2000/svg" xmlns:xlink="http://www.w3.org/1999/xlink" width="500" zoomAndPan="magnify" viewBox="0 0 375 374.999991" height="500" preserveAspectRatio="xMidYMid meet" version="1.0"><path fill="#5d867c" d="M 193.691406 72.582031 C 194.527344 45.429688 213.851562 32.910156 230.890625 37.609375 C 247.925781 42.304688 258.800781 62.917969 246.003906 87 C 268.613281 74.160156 286.027344 71.359375 293.28125 100.03125 C 302.011719 134.535156 275.066406 136.132812 252.144531 133.917969 C 274.878906 144.667969 291.375 162.847656 270.113281 184.097656 C 243.53125 210.664062 230.097656 191.679688 217.566406 169.617188 C 220.527344 190.578125 213.28125 215.195312 187.574219 209.480469 C 162.257812 203.847656 163.777344 181.113281 175.929688 158.140625 C 149.863281 172.945312 116.375 166.773438 115.902344 141.136719 C 115.632812 126.664062 130.824219 106.703125 162.050781 109.089844 C 135.265625 95.761719 132.808594 71.425781 145.328125 59.253906 C 157.847656 47.078125 179.160156 47 193.691406 72.582031 Z M 193.691406 72.582031 " fill-opacity="1" fill-rule="evenodd"/><path fill="#ffffff" d="M 193.773438 117.824219 C 187.949219 112.757812 189.921875 105.839844 195.152344 102.554688 C 200.378906 99.273438 207.628906 100.335938 209.832031 107.746094 C 212.535156 99.976562 216.195312 95.261719 224.34375 98.640625 C 234.148438 102.710938 227.878906 109.515625 221.753906 114.667969 C 229.726562 111.089844 237.816406 110.355469 237.308594 119.308594 C 236.675781 130.5 229.160156 130.351562 221.179688 129.429688 C 226.5625 132.46875 230.246094 138.632812 222.660156 143.828125 C 215.1875 148.945312 210.511719 144.503906 208.398438 137.449219 C 205.28125 146.40625 195.679688 153.40625 189.871094 148.929688 C 186.59375 146.402344 185.894531 139.148438 194.101562 132.019531 C 184.558594 136.113281 178.550781 132.347656 178.925781 127.140625 C 179.300781 121.929688 184.523438 116.757812 193.773438 117.824219 Z M 193.773438 117.824219 " fill-opacity="1" fill-rule="evenodd"/><path fill="#ffffff" d="M 146.226562 71.59375 C 146.175781 70.742188 145.867188 69.917969 145.816406 69.0625 C 145.78125 68.472656 157.824219 48.207031 175.476562 58.945312 C 175.730469 59.101562 176.105469 59.15625 176.230469 59.425781 C 176.578125 60.160156 176.472656 61.058594 176.820312 61.796875 C 176.007812 61.851562 175.269531 62.332031 174.460938 62.390625 C 174.4375 62.390625 162.070312 53.683594 149.246094 70.234375 C 149.0625 70.46875 148.980469 70.828125 148.707031 70.949219 C 147.929688 71.304688 147.007812 71.242188 146.226562 71.59375 Z M 146.226562 71.59375 " fill-opacity="1" fill-rule="evenodd"/><path fill="#ffffff" d="M 149.859375 92.28125 C 149.082031 91.957031 147.945312 92.039062 147.53125 91.304688 C 146.066406 88.707031 144.664062 85.902344 144.09375 80.890625 C 143.300781 73.898438 147.269531 78.09375 147.359375 78.410156 C 148.78125 83.464844 149.105469 83.339844 150.347656 88.441406 C 150.476562 88.96875 150.804688 89.484375 150.734375 90.019531 C 150.632812 90.824219 149.960938 91.480469 149.859375 92.28125 Z M 149.859375 92.28125 " fill-opacity="1" fill-rule="evenodd"/><path fill="#ffffff" d="M 196.160156 204.640625 C 196.539062 203.921875 196.398438 203 196.777344 202.28125 C 197.019531 201.820312 207.296875 196.390625 210.070312 187.132812 C 211.003906 184.015625 210.976562 180.894531 210.988281 180.871094 C 211.4375 180.195312 212.230469 179.792969 212.675781 179.113281 C 213.140625 179.785156 213.980469 180.136719 214.445312 180.804688 C 214.796875 181.3125 214.441406 185.058594 214.40625 185.425781 C 213.324219 196.789062 204.816406 201.957031 198.660156 205.175781 C 197.734375 205.664062 197.753906 204.984375 196.160156 204.640625 Z M 196.160156 204.640625 " fill-opacity="1" fill-rule="evenodd"/><path fill="#ffffff" d="M 183.882812 200.515625 C 184.359375 200.492188 185.996094 200.933594 190.78125 201.976562 C 191.636719 202.160156 191.5625 202.304688 193.339844 203.609375 C 192.234375 204.9375 192.566406 205.328125 191.519531 205.597656 C 186.898438 206.777344 182.230469 203.625 182.1875 203.503906 C 181.910156 202.738281 181.152344 201.847656 181.5625 201.144531 C 181.964844 200.445312 184.355469 199.839844 183.894531 200.503906 C 183.890625 200.507812 183.886719 200.511719 183.882812 200.515625 Z M 183.882812 200.515625 " fill-opacity="1" fill-rule="evenodd"/><path fill="#fcbccb" d="M 215.109375 119.378906 C 215.304688 119.679688 215.453125 120.007812 215.558594 120.355469 C 215.664062 120.707031 215.726562 121.074219 215.738281 121.457031 C 215.753906 121.84375 215.71875 122.238281 215.640625 122.644531 C 215.5625 123.046875 215.441406 123.453125 215.273438 123.863281 C 215.101562 124.273438 214.894531 124.675781 214.644531 125.074219 C 214.390625 125.472656 214.105469 125.855469 213.78125 126.226562 C 213.457031 126.597656 213.101562 126.949219 212.714844 127.277344 C 212.332031 127.609375 211.921875 127.910156 211.492188 128.1875 C 211.058594 128.464844 210.613281 128.707031 210.152344 128.921875 C 209.691406 129.132812 209.226562 129.308594 208.753906 129.449219 C 208.28125 129.585938 207.8125 129.6875 207.34375 129.75 C 206.878906 129.8125 206.425781 129.835938 205.984375 129.816406 C 205.542969 129.796875 205.121094 129.742188 204.71875 129.644531 C 204.320312 129.546875 203.945312 129.410156 203.601562 129.234375 C 203.257812 129.0625 202.949219 128.855469 202.675781 128.613281 C 202.402344 128.371094 202.167969 128.097656 201.976562 127.796875 C 201.78125 127.496094 201.632812 127.167969 201.527344 126.816406 C 201.421875 126.46875 201.359375 126.101562 201.347656 125.714844 C 201.332031 125.332031 201.363281 124.9375 201.445312 124.53125 C 201.523438 124.125 201.644531 123.71875 201.8125 123.3125 C 201.980469 122.902344 202.191406 122.5 202.441406 122.101562 C 202.691406 121.703125 202.980469 121.320312 203.304688 120.949219 C 203.628906 120.578125 203.984375 120.226562 204.371094 119.894531 C 204.753906 119.566406 205.164062 119.261719 205.59375 118.988281 C 206.027344 118.710938 206.472656 118.464844 206.933594 118.253906 C 207.394531 118.042969 207.859375 117.867188 208.332031 117.726562 C 208.804688 117.585938 209.273438 117.484375 209.738281 117.421875 C 210.207031 117.363281 210.660156 117.339844 211.101562 117.359375 C 211.542969 117.375 211.964844 117.433594 212.367188 117.53125 C 212.765625 117.628906 213.136719 117.765625 213.480469 117.9375 C 213.828125 118.109375 214.136719 118.320312 214.410156 118.5625 C 214.683594 118.804688 214.917969 119.074219 215.109375 119.378906 Z M 215.109375 119.378906 " fill-opacity="1" fill-rule="nonzero"/><path fill="#5d867c" d="M 265.976562 252.347656 C 259.039062 238.957031 265.019531 227.65625 274.554688 225.324219 C 284.085938 222.988281 294.9375 230.042969 295.25 245.183594 C 302.738281 232.839844 310.425781 226.769531 321.699219 238.710938 C 335.269531 253.082031 322.636719 261.148438 310.921875 266.277344 C 324.855469 265.335938 337.773438 269.6875 333.214844 285.746094 C 327.511719 305.824219 315.859375 300.253906 303.816406 292.945312 C 310.921875 302.304688 314.070312 316.207031 300.058594 320.390625 C 286.257812 324.511719 280.839844 313.074219 280.515625 298.644531 C 271.882812 312.878906 253.972656 318.945312 246.808594 306.644531 C 242.761719 299.699219 244.726562 285.90625 260.515625 278.613281 C 243.921875 279.398438 236.140625 268.261719 238.921875 258.972656 C 241.695312 249.679688 252.011719 243.875 265.976562 252.347656 Z M 265.976562 252.347656 " fill-opacity="1" fill-rule="evenodd"/><path fill="#ffffff" d="M 280.28125 267.644531 C 278.101562 263.953125 280.347656 260.652344 283.679688 259.835938 C 287.007812 259.023438 290.644531 260.847656 290.507812 265.140625 C 293.292969 261.515625 296.046875 259.671875 299.75 262.878906 C 304.207031 266.738281 299.710938 269.230469 295.582031 270.871094 C 300.410156 270.382812 304.804688 271.410156 302.972656 276.039062 C 300.679688 281.824219 296.742188 280.433594 292.699219 278.550781 C 295.003906 281.09375 295.867188 284.988281 290.960938 286.398438 C 286.128906 287.789062 284.441406 284.632812 284.5625 280.542969 C 281.351562 284.722656 275.066406 286.730469 272.789062 283.355469 C 271.503906 281.449219 272.402344 277.503906 277.972656 275.183594 C 272.226562 275.671875 269.71875 272.636719 270.828125 269.957031 C 271.9375 267.277344 275.59375 265.464844 280.28125 267.644531 Z M 280.28125 267.644531 " fill-opacity="1" fill-rule="evenodd"/><path fill="#ffffff" d="M 242.496094 258.886719 C 242.777344 257.945312 244.757812 251.347656 251.679688 250.71875 C 251.910156 250.695312 257.621094 250.175781 253.890625 252.609375 C 253.585938 252.808594 248.65625 251.910156 245.566406 257.640625 C 243.996094 260.550781 243.726562 263.808594 243.71875 263.824219 C 242.957031 264.988281 242.363281 264.96875 241.804688 263.691406 C 241.777344 263.628906 241.863281 260.992188 242.496094 258.886719 Z M 242.496094 258.886719 " fill-opacity="1" fill-rule="evenodd"/><path fill="#ffffff" d="M 248.398438 273.765625 C 247.660156 273.269531 245.746094 272.171875 243.851562 269.332031 C 243.542969 268.867188 242.980469 268.125 243.746094 267.539062 C 244.109375 267.257812 244.648438 266.84375 248.425781 270.867188 C 248.90625 271.378906 249.378906 271.902344 249.855469 272.417969 C 251.261719 273.9375 249.09375 274.234375 248.398438 273.765625 Z M 248.398438 273.765625 " fill-opacity="1" fill-rule="evenodd"/><path fill="#ffffff" d="M 305.882812 312.574219 C 305.761719 312.804688 304.503906 315.21875 304.222656 315.382812 C 303.0625 316.050781 302.4375 315.890625 302.570312 314.410156 C 302.648438 313.5625 307.128906 307.730469 304.085938 301.03125 C 303.851562 300.507812 303.050781 299.4375 304.011719 298.871094 C 305.566406 297.957031 306.964844 302.476562 307.082031 302.863281 C 307.722656 304.929688 308.136719 308.242188 305.882812 312.574219 Z M 305.882812 312.574219 " fill-opacity="1" fill-rule="evenodd"/><path fill="#ffffff" d="M 295.859375 317.140625 C 296.445312 316.6875 299.964844 315.78125 299.9375 315.753906 C 299.609375 315.449219 301.003906 315.617188 301.265625 315.980469 C 301.652344 316.523438 301.207031 317.234375 300.789062 317.558594 C 300.425781 317.835938 299.097656 319.039062 296.289062 318.980469 C 295.738281 318.96875 294.871094 318.921875 294.886719 317.972656 C 294.890625 317.527344 295.867188 316.585938 295.84375 317.03125 C 295.84375 317.058594 295.847656 317.097656 295.859375 317.140625 Z M 295.859375 317.140625 " fill-opacity="1" fill-rule="evenodd"/><path fill="#fcbccb" d="M 291.203125 272.074219 C 291.292969 272.464844 291.273438 272.867188 291.144531 273.28125 C 291.015625 273.691406 290.785156 274.082031 290.457031 274.453125 C 290.125 274.820312 289.71875 275.140625 289.238281 275.414062 C 288.753906 275.683594 288.234375 275.882812 287.675781 276.015625 C 287.117188 276.144531 286.5625 276.195312 286.007812 276.167969 C 285.457031 276.140625 284.949219 276.03125 284.492188 275.847656 C 284.03125 275.664062 283.652344 275.414062 283.351562 275.101562 C 283.054688 274.792969 282.859375 274.441406 282.765625 274.046875 C 282.675781 273.65625 282.691406 273.253906 282.824219 272.84375 C 282.953125 272.429688 283.183594 272.039062 283.511719 271.667969 C 283.84375 271.300781 284.25 270.980469 284.730469 270.707031 C 285.214844 270.4375 285.734375 270.238281 286.292969 270.105469 C 286.851562 269.976562 287.40625 269.925781 287.960938 269.953125 C 288.511719 269.984375 289.015625 270.089844 289.476562 270.273438 C 289.9375 270.457031 290.316406 270.707031 290.617188 271.019531 C 290.914062 271.328125 291.109375 271.683594 291.203125 272.074219 Z M 291.203125 272.074219 " fill-opacity="1" fill-rule="nonzero"/><path fill="#5d867c" d="M 82.792969 251.394531 C 69.339844 235.636719 73.828125 218.660156 85.855469 212.574219 C 97.878906 206.488281 114.589844 212.546875 119.71875 232.699219 C 125.894531 213.859375 134.285156 203.34375 153.085938 215.808594 C 175.707031 230.808594 161.320312 245.527344 147.246094 256.035156 C 165.589844 250.441406 184.222656 252.242188 183.125 275.140625 C 181.746094 303.769531 164.425781 299.945312 146.039062 293.917969 C 158.460938 304.226562 166.996094 321.839844 149.554688 331.800781 C 132.378906 341.605469 121.574219 327.992188 116.652344 308.796875 C 109.53125 330.519531 87.464844 344.210938 74.046875 329.984375 C 66.476562 321.953125 64.8125 302.894531 83.660156 288.226562 C 61.707031 294.441406 47.835938 281.964844 48.660156 268.675781 C 49.484375 255.382812 61.472656 244.40625 82.792969 251.394531 Z M 82.792969 251.394531 " fill-opacity="1" fill-rule="evenodd"/><path fill="#ffffff" d="M 106.6875 267.398438 C 102.621094 263.144531 104.601562 258.027344 108.800781 255.898438 C 113 253.773438 118.433594 255.085938 119.585938 260.867188 C 122.183594 255.15625 125.292969 251.828125 131.242188 254.964844 C 138.40625 258.742188 133.171875 263.472656 128.160156 266.957031 C 134.464844 264.796875 140.660156 264.804688 139.648438 271.566406 C 138.382812 280.023438 132.6875 279.382812 126.691406 278.125 C 130.566406 280.808594 132.933594 285.75 126.808594 289.164062 C 120.777344 292.527344 117.539062 288.832031 116.425781 283.324219 C 113.429688 289.910156 105.652344 294.554688 101.554688 290.746094 C 99.238281 288.597656 99.214844 283.042969 105.945312 278.203125 C 98.414062 280.644531 94.113281 277.367188 94.761719 273.433594 C 95.410156 269.503906 99.738281 265.941406 106.6875 267.398438 Z M 106.6875 267.398438 " fill-opacity="1" fill-rule="evenodd"/><path fill="#ffffff" d="M 55.496094 275.175781 C 55.109375 274.65625 54.359375 274.484375 53.96875 273.960938 C 53.601562 273.472656 50.128906 256.015625 65.519531 253.039062 C 65.742188 252.996094 65.984375 252.835938 66.191406 252.921875 C 66.765625 253.160156 67.167969 253.71875 67.738281 253.957031 C 67.3125 254.40625 67.136719 255.058594 66.710938 255.503906 C 66.363281 255.871094 59.679688 256.175781 57.242188 264.457031 C 55.910156 268.980469 56.589844 273.46875 56.566406 273.542969 C 56.378906 274.167969 55.683594 274.554688 55.496094 275.175781 Z M 55.496094 275.175781 " fill-opacity="1" fill-rule="evenodd"/><path fill="#ffffff" d="M 68.160156 284.992188 C 67.574219 285.199219 67.007812 285.460938 66.421875 285.671875 C 65.582031 285.96875 58.277344 281.546875 57.960938 280.484375 C 57.785156 279.886719 57.960938 279.226562 57.78125 278.628906 C 58.398438 278.671875 59.015625 278.402344 59.632812 278.449219 C 59.996094 278.472656 63.617188 280.703125 63.957031 280.914062 C 65.582031 281.917969 65.546875 281.949219 67.125 283.019531 C 68.085938 283.671875 67.621094 283.964844 68.160156 284.992188 Z M 68.160156 284.992188 " fill-opacity="1" fill-rule="evenodd"/><path fill="#ffffff" d="M 151.917969 324.664062 C 151.832031 324.050781 151.140625 323.628906 151.054688 323.015625 C 150.871094 321.679688 155.304688 312.449219 148.523438 304.148438 C 148.386719 303.976562 148.136719 303.863281 148.101562 303.644531 C 148.003906 303.03125 148.246094 302.398438 148.148438 301.785156 C 148.753906 301.925781 149.40625 301.695312 150.015625 301.835938 C 150.242188 301.886719 150.351562 302.164062 150.515625 302.328125 C 156.847656 308.765625 156.433594 315.726562 153.886719 322.933594 C 153.785156 323.222656 153.800781 323.59375 153.570312 323.796875 C 153.101562 324.207031 152.386719 324.253906 151.917969 324.664062 Z M 151.917969 324.664062 " fill-opacity="1" fill-rule="evenodd"/><path fill="#ffffff" d="M 142.914062 328.625 C 143.234375 328.300781 144.375 327.613281 147.351562 326.011719 C 147.472656 325.945312 147.589844 325.878906 147.707031 325.804688 C 148.601562 325.242188 148.691406 325.675781 149.796875 325.527344 C 149.855469 327.238281 150.125 327.40625 148.929688 328.605469 C 148.484375 329.054688 147.105469 330.515625 143.726562 331.152344 C 142.863281 331.316406 143.042969 330.789062 141.882812 330.175781 C 142.277344 329.703125 142.480469 329.09375 142.871094 328.621094 C 142.886719 328.605469 142.902344 328.609375 142.914062 328.625 Z M 142.914062 328.625 " fill-opacity="1" fill-rule="evenodd"/><path fill="#fcbccb" d="M 122.671875 269.925781 C 122.792969 270.171875 122.878906 270.433594 122.929688 270.707031 C 122.980469 270.980469 122.996094 271.265625 122.972656 271.558594 C 122.949219 271.851562 122.890625 272.144531 122.796875 272.445312 C 122.703125 272.746094 122.574219 273.042969 122.414062 273.339844 C 122.253906 273.636719 122.058594 273.921875 121.835938 274.203125 C 121.609375 274.484375 121.359375 274.75 121.082031 275.003906 C 120.804688 275.257812 120.507812 275.492188 120.1875 275.710938 C 119.867188 275.929688 119.53125 276.125 119.183594 276.296875 C 118.832031 276.46875 118.472656 276.617188 118.105469 276.738281 C 117.738281 276.859375 117.371094 276.953125 117 277.019531 C 116.628906 277.085938 116.265625 277.121094 115.90625 277.128906 C 115.546875 277.136719 115.203125 277.113281 114.871094 277.0625 C 114.535156 277.011719 114.222656 276.933594 113.925781 276.824219 C 113.632812 276.71875 113.359375 276.582031 113.113281 276.421875 C 112.867188 276.261719 112.652344 276.078125 112.464844 275.871094 C 112.277344 275.664062 112.125 275.4375 112.003906 275.191406 C 111.882812 274.949219 111.796875 274.6875 111.746094 274.414062 C 111.695312 274.136719 111.679688 273.855469 111.703125 273.5625 C 111.726562 273.269531 111.785156 272.972656 111.878906 272.671875 C 111.972656 272.371094 112.097656 272.074219 112.261719 271.777344 C 112.421875 271.484375 112.617188 271.195312 112.839844 270.914062 C 113.0625 270.636719 113.316406 270.367188 113.59375 270.113281 C 113.871094 269.863281 114.167969 269.625 114.488281 269.410156 C 114.808594 269.191406 115.144531 268.996094 115.492188 268.824219 C 115.84375 268.648438 116.203125 268.503906 116.570312 268.382812 C 116.9375 268.257812 117.304688 268.164062 117.675781 268.101562 C 118.046875 268.035156 118.410156 267.996094 118.769531 267.988281 C 119.125 267.980469 119.472656 268.003906 119.804688 268.054688 C 120.140625 268.105469 120.453125 268.1875 120.75 268.292969 C 121.042969 268.402344 121.316406 268.535156 121.5625 268.695312 C 121.808594 268.855469 122.023438 269.042969 122.210938 269.25 C 122.398438 269.453125 122.550781 269.679688 122.671875 269.925781 Z M 122.671875 269.925781 " fill-opacity="1" fill-rule="nonzero"/><path fill="#ffffff" d="M 85.871094 157.878906 L 83.601562 161.441406 C 83.097656 162.230469 82.933594 163.1875 83.148438 164.070312 C 83.367188 164.953125 83.941406 165.679688 84.746094 166.082031 L 88.332031 167.882812 L 84.390625 166.972656 C 83.511719 166.769531 82.570312 166.953125 81.796875 167.480469 C 81.023438 168.003906 80.484375 168.824219 80.320312 169.734375 L 79.554688 173.839844 L 79.386719 169.714844 C 79.351562 168.796875 78.933594 167.957031 78.238281 167.398438 C 77.542969 166.839844 76.628906 166.617188 75.730469 166.78125 L 71.667969 167.515625 L 75.503906 165.875 C 76.359375 165.515625 77.039062 164.8125 77.386719 163.941406 C 77.730469 163.074219 77.707031 162.113281 77.316406 161.300781 L 75.570312 157.652344 L 78.109375 160.761719 C 78.675781 161.457031 79.511719 161.859375 80.421875 161.882812 C 81.332031 161.90625 82.226562 161.535156 82.886719 160.867188 Z M 85.871094 157.878906 " fill-opacity="1" fill-rule="evenodd"/><path fill="#ffffff" d="M 309.164062 174.070312 L 306.894531 177.628906 C 306.390625 178.421875 306.226562 179.378906 306.441406 180.257812 C 306.660156 181.140625 307.238281 181.871094 308.039062 182.269531 L 311.628906 184.070312 L 307.683594 183.160156 C 306.808594 182.957031 305.867188 183.144531 305.09375 183.667969 C 304.320312 184.195312 303.78125 185.011719 303.613281 185.925781 L 302.847656 190.027344 L 302.679688 185.902344 C 302.644531 184.988281 302.230469 184.148438 301.53125 183.589844 C 300.835938 183.027344 299.925781 182.808594 299.023438 182.96875 L 294.960938 183.703125 L 298.800781 182.066406 C 299.652344 181.703125 300.335938 181 300.679688 180.128906 C 301.023438 179.261719 301 178.300781 300.613281 177.492188 L 298.863281 173.839844 L 301.402344 176.949219 C 301.96875 177.644531 302.804688 178.050781 303.714844 178.070312 C 304.625 178.09375 305.519531 177.722656 306.179688 177.058594 Z M 309.164062 174.070312 " fill-opacity="1" fill-rule="evenodd"/><path fill="#ffffff" d="M 211.300781 336.035156 L 209.03125 339.59375 C 208.527344 340.386719 208.363281 341.34375 208.578125 342.222656 C 208.796875 343.105469 209.375 343.835938 210.175781 344.238281 L 213.765625 346.039062 L 209.820312 345.125 C 208.945312 344.921875 208.003906 345.109375 207.230469 345.632812 C 206.457031 346.160156 205.917969 346.976562 205.75 347.890625 L 204.984375 351.992188 L 204.816406 347.867188 C 204.78125 346.953125 204.367188 346.113281 203.667969 345.554688 C 202.972656 344.996094 202.0625 344.773438 201.160156 344.933594 L 197.097656 345.667969 L 200.933594 344.03125 C 201.789062 343.667969 202.472656 342.964844 202.816406 342.09375 C 203.160156 341.226562 203.136719 340.265625 202.75 339.457031 L 201 335.804688 L 203.539062 338.917969 C 204.105469 339.609375 204.941406 340.015625 205.851562 340.039062 C 206.761719 340.058594 207.65625 339.6875 208.316406 339.023438 Z M 211.300781 336.035156 " fill-opacity="1" fill-rule="evenodd"/><path fill="#ffffff" d="M 197.371094 15.992188 L 195.101562 19.554688 C 194.597656 20.34375 194.429688 21.300781 194.648438 22.179688 C 194.867188 23.066406 195.441406 23.792969 196.246094 24.195312 L 199.832031 25.996094 L 195.890625 25.082031 C 195.011719 24.882812 194.070312 25.066406 193.296875 25.589844 C 192.523438 26.117188 191.984375 26.9375 191.816406 27.847656 L 191.054688 31.953125 L 190.886719 27.828125 C 190.847656 26.910156 190.433594 26.070312 189.738281 25.511719 C 189.039062 24.953125 188.128906 24.730469 187.226562 24.894531 L 183.167969 25.628906 L 187.003906 23.988281 C 187.859375 23.628906 188.539062 22.925781 188.886719 22.054688 C 189.230469 21.183594 189.207031 20.226562 188.816406 19.414062 L 187.070312 15.761719 L 189.609375 18.875 C 190.171875 19.570312 191.011719 19.972656 191.921875 19.996094 C 192.832031 20.015625 193.726562 19.644531 194.386719 18.980469 Z M 197.371094 15.992188 " fill-opacity="1" fill-rule="evenodd"/></svg>