<svg width="119" height="119" viewBox="0 0 119 119" fill="none" xmlns="http://www.w3.org/2000/svg">
<g clip-path="url(#clip0_32_31)">
<path d="M36.036 61.886V46.9904H48.0504V39.5C48.0504 34.0912 49.803 29.4916 53.313 25.694C56.823 21.8988 61.0764 20 66.066 20H78V34.898H66.066C65.2884 34.898 64.5864 35.327 63.9624 36.185C63.3384 37.043 63.0264 38.096 63.0264 39.344V46.988H78V61.8836H63.024V98H48.048V61.886H36.036Z" fill="#FEFFE2"/>
</g>
<path d="M119 59.5C119 92.3609 92.3609 119 59.5 119C26.6391 119 0 92.3609 0 59.5C0 26.6391 26.6391 0 59.5 0C92.3609 0 119 26.6391 119 59.5ZM6.80824 59.5C6.80824 88.6009 30.3991 112.192 59.5 112.192C88.6009 112.192 112.192 88.6009 112.192 59.5C112.192 30.3991 88.6009 6.80824 59.5 6.80824C30.3991 6.80824 6.80824 30.3991 6.80824 59.5Z" fill="#FEFFE2"/>
<defs>
<clipPath id="clip0_32_31">
<rect width="78" height="78" fill="white" transform="translate(0 20)"/>
</clipPath>
</defs>
</svg>
