<svg width="119" height="119" viewBox="0 0 119 119" fill="none" xmlns="http://www.w3.org/2000/svg">
<g clip-path="url(#clip0_32_38)">
<path d="M46.0398 28.2275C42.5818 28.3906 40.2204 28.9425 38.1558 29.7534C36.0195 30.5862 34.2084 31.7034 32.4066 33.5118C30.605 35.3201 29.4951 37.1323 28.6686 39.2724C27.8685 41.341 27.3263 43.7046 27.1736 47.1645C27.0208 50.6244 26.987 51.7367 27.004 60.5626C27.0208 69.388 27.0598 70.4943 27.2275 73.9615C27.3927 77.4187 27.9424 79.7796 28.7536 81.8447C29.5878 83.9813 30.7036 85.7915 32.5128 87.5939C34.3217 89.3963 36.1324 90.5035 38.2774 91.3314C40.3444 92.1304 42.7086 92.675 46.1679 92.8264C49.6273 92.9781 50.7407 93.0133 59.5639 92.9963C68.3871 92.9795 69.498 92.9402 72.9641 92.7758C76.4308 92.6114 78.7789 92.0575 80.8449 91.2502C82.9815 90.4144 84.7931 89.3002 86.5941 87.4908C88.3951 85.681 89.5042 83.8675 90.3303 81.7263C91.1311 79.6593 91.6752 77.2955 91.8253 73.8386C91.9769 70.3695 92.0127 69.262 91.9959 60.4378C91.9788 51.6132 91.939 50.5068 91.7746 47.041C91.6102 43.5751 91.0596 41.2216 90.249 39.1551C89.4138 37.0185 88.299 35.2096 86.4909 33.4059C84.6826 31.6021 82.8674 30.4939 80.7273 29.6697C78.6587 28.8694 76.2962 28.3242 72.8369 28.1747C69.3775 28.0252 68.2641 27.9865 59.4377 28.0038C50.6112 28.0206 49.5062 28.0585 46.0398 28.2275ZM46.4195 86.9797C43.2508 86.8418 41.5302 86.3153 40.3834 85.8747C38.8652 85.2897 37.7834 84.5825 36.6408 83.4507C35.4979 82.3192 34.7962 81.2337 34.2033 79.7186C33.7581 78.5719 33.2218 76.8532 33.0737 73.6845C32.9125 70.2598 32.8787 69.2314 32.8597 60.5545C32.8407 51.8778 32.8741 50.8505 33.0241 47.4245C33.1595 44.2584 33.6893 42.5359 34.1291 41.3898C34.7141 39.8696 35.4188 38.7898 36.5531 37.6479C37.6873 36.5058 38.7696 35.8025 40.2859 35.2096C41.4316 34.7625 43.15 34.2308 46.3174 34.08C49.7448 33.9175 50.7718 33.885 59.4474 33.866C68.123 33.8471 69.1527 33.8796 72.5815 34.0307C75.7475 34.1683 77.4708 34.6929 78.6156 35.1357C80.1345 35.7207 81.2156 36.4232 82.3575 37.5596C83.4996 38.6955 84.2035 39.774 84.7963 41.2936C85.244 42.4357 85.7759 44.1536 85.9254 47.3232C86.0885 50.7506 86.1256 51.7784 86.141 60.4532C86.1567 69.128 86.1261 70.1582 85.9758 73.5832C85.8377 76.7519 85.3123 78.4731 84.8708 79.6212C84.2858 81.1389 83.5808 82.2211 82.4458 83.3624C81.311 84.504 80.2301 85.2071 78.7129 85.7999C77.5689 86.2465 75.8483 86.7795 72.6836 86.9304C69.2559 87.0915 68.2289 87.1254 59.5501 87.1444C50.8712 87.1633 49.8469 87.1281 46.4195 86.9797ZM72.9143 43.1299C72.9156 43.9013 73.1456 44.655 73.5753 45.2957C74.005 45.9363 74.615 46.4352 75.3282 46.7291C76.0414 47.0231 76.8258 47.0989 77.5821 46.947C78.3385 46.7952 79.0327 46.4224 79.5772 45.8759C80.1216 45.3294 80.4918 44.6337 80.6408 43.8769C80.7899 43.12 80.7111 42.3359 80.4145 41.6238C80.1179 40.9117 79.6167 40.3035 78.9744 39.8762C78.3322 39.449 77.5776 39.2218 76.8062 39.2234C75.7721 39.2255 74.7813 39.6383 74.0514 40.3708C73.3216 41.1034 72.9126 42.0958 72.9143 43.1299ZM42.8126 60.5325C42.8307 69.7495 50.3163 77.2042 59.5311 77.1869C68.7465 77.1693 76.2063 69.6845 76.189 60.4675C76.1714 51.2505 68.6842 43.7937 59.4677 43.8118C50.2513 43.83 42.7952 51.3166 42.8126 60.5325ZM48.6666 60.5209C48.6624 58.3783 49.2936 56.2825 50.4805 54.4987C51.6673 52.7148 53.3565 51.3229 55.3344 50.4991C57.3123 49.6752 59.49 49.4563 61.5923 49.8702C63.6946 50.284 65.6269 51.3119 67.145 52.824C68.6631 54.336 69.6987 56.2643 70.1209 58.3649C70.5431 60.4655 70.3329 62.6441 69.5169 64.6253C68.7009 66.6064 67.3157 68.3011 65.5366 69.4951C63.7575 70.689 61.6642 71.3285 59.5216 71.3328C58.0989 71.3358 56.6895 71.0585 55.374 70.5168C54.0585 69.975 52.8625 69.1794 51.8545 68.1754C50.8465 67.1714 50.0462 65.9786 49.4992 64.6652C48.9522 63.3519 48.6693 61.9436 48.6666 60.5209Z" fill="#FEFFE2"/>
</g>
<path d="M119 59.5C119 92.3609 92.3609 119 59.5 119C26.6391 119 0 92.3609 0 59.5C0 26.6391 26.6391 0 59.5 0C92.3609 0 119 26.6391 119 59.5ZM6.80824 59.5C6.80824 88.6009 30.3991 112.192 59.5 112.192C88.6009 112.192 112.192 88.6009 112.192 59.5C112.192 30.3991 88.6009 6.80824 59.5 6.80824C30.3991 6.80824 6.80824 30.3991 6.80824 59.5Z" fill="#FEFFE2"/>
<defs>
<clipPath id="clip0_32_38">
<rect width="65" height="65" fill="white" transform="translate(27 28)"/>
</clipPath>
</defs>
</svg>
