<svg width="119" height="119" viewBox="0 0 119 119" fill="none" xmlns="http://www.w3.org/2000/svg">
<path d="M36.7066 30.4015C32.7296 30.4015 30.1075 33.1175 30.1075 36.7065C30.1075 40.1985 32.6311 43.0085 36.5111 43.0085C40.6821 43.0085 43.3011 40.1985 43.2041 36.7065C43.2041 33.1175 40.6836 30.4015 36.7066 30.4015ZM73.9515 47.0855C67.2585 47.0855 63.1861 50.964 61.5371 53.68H61.3446L60.7611 47.9585H49.9956C50.0926 51.6445 50.2851 55.9125 50.2851 60.9565V88.5985H62.6995V65.2215C62.6995 64.0575 62.7965 62.895 63.0875 62.022C64.0575 59.694 66.0961 57.2675 69.4911 57.2675C74.0501 57.2675 75.7961 60.858 75.7961 66.096V88.5985H88.3091V64.6425C88.3091 52.6145 82.0995 47.0855 73.9515 47.0855ZM30.4016 47.9585V88.5985H42.8161V47.9585H30.4016Z" fill="#FEFFE2"/>
<path d="M119 59.5C119 92.3609 92.3609 119 59.5 119C26.6391 119 0 92.3609 0 59.5C0 26.6391 26.6391 0 59.5 0C92.3609 0 119 26.6391 119 59.5ZM6.80824 59.5C6.80824 88.6009 30.3991 112.192 59.5 112.192C88.6009 112.192 112.192 88.6009 112.192 59.5C112.192 30.3991 88.6009 6.80824 59.5 6.80824C30.3991 6.80824 6.80824 30.3991 6.80824 59.5Z" fill="#FEFFE2"/>
</svg>
