<svg width="33" height="24" viewBox="0 0 33 24" fill="none" xmlns="http://www.w3.org/2000/svg">
<path d="M16.5 12L20.2045 12.3455H32.1924L22.494 12.559L26.1985 12.9045L16.5 12.691L6.80154 12.9045L10.506 12.559L0.807568 12.3455H12.7955L16.5 12Z" fill="white"/>
<path d="M13.599 18.5374C12.9147 17.7472 12.4637 16.2893 12.2459 14.1639C11.2608 14.2973 10.5029 14.0575 9.97229 13.4447C9.87454 13.3318 9.7819 13.2004 9.69437 13.0504C9.40386 12.5682 9.28181 12.1095 9.32822 11.6743C9.37462 11.239 9.53491 10.9027 9.80908 10.6653C10.0429 10.4628 10.3138 10.3764 10.6217 10.4061C10.9296 10.4358 11.2162 10.6038 11.4816 10.9103C11.5584 10.999 11.6446 11.1148 11.7402 11.2578C11.941 11.6201 12.1481 12.2097 12.3617 13.0266C12.6702 12.9429 12.9843 12.8331 13.3041 12.6973C12.8191 12.1861 12.5447 11.6899 12.481 11.2089C12.4242 10.736 12.5773 10.3425 12.9401 10.0283C13.1498 9.84672 13.4048 9.71759 13.7053 9.64088C13.8883 8.98858 14.2378 8.439 14.7539 7.99212C15.6086 7.25199 16.4581 7.05972 17.3021 7.4153C17.5004 7.49761 17.6623 7.61133 17.788 7.75648C18.0952 8.11129 18.1732 8.5517 18.022 9.07773C17.8492 9.69295 17.404 10.3113 16.6863 10.9327C16.1299 11.4145 15.4201 11.8739 14.5569 12.311C14.6756 12.448 14.818 12.5717 14.984 12.6819C15.7488 12.2454 16.4245 11.8932 17.0109 11.6253C17.6123 11.3585 18.128 11.18 18.558 11.0899C19.7484 10.8352 20.5286 10.9215 20.8987 11.3489C21.1081 11.5908 21.1427 11.8995 21.0022 12.2751C20.8769 12.6518 20.6206 13.0077 20.2336 13.3428C19.7498 13.7618 19.1878 14.0579 18.5477 14.2312C17.9157 14.3975 17.2367 14.4281 16.5107 14.323C15.7026 14.2044 14.9474 13.927 14.2452 13.4909C13.9093 13.6407 13.6016 13.766 13.3221 13.8669C13.0507 13.9608 12.8035 14.0338 12.5804 14.0858C12.6351 14.3771 12.6944 14.6574 12.7582 14.9267C12.822 15.1959 12.8899 15.4617 12.9618 15.7239C13.1689 16.4194 13.3796 17.013 13.5938 17.5048C13.8069 18.0117 14.0426 18.4143 14.301 18.7126C14.678 19.1481 15.0807 19.2791 15.5091 19.1057C15.5945 19.0741 15.6547 19.0784 15.6896 19.1187C15.7176 19.151 15.6848 19.1864 15.5913 19.2251C15.172 19.3764 14.7403 19.334 14.296 19.0979C14.0477 18.9742 13.8154 18.7874 13.599 18.5374ZM14.4207 12.1537C15.2469 11.7064 15.9382 11.2419 16.4946 10.7601C17.2122 10.1387 17.6588 9.55449 17.8342 9.00752C17.9973 8.52771 17.9461 8.1346 17.6808 7.82817C17.4155 7.52175 17.0359 7.38482 16.542 7.41738C16.0019 7.46175 15.502 7.68293 15.0424 8.08092C14.5989 8.46495 14.2491 8.96536 13.9931 9.58216C14.3144 9.52964 14.646 9.54591 14.9877 9.63097C15.0318 9.64926 15.0643 9.6705 15.0852 9.69469C15.1132 9.72694 15.1046 9.74145 15.0594 9.7382C14.6263 9.66171 14.2343 9.6978 13.8833 9.8465C13.6583 10.6621 13.8375 11.4312 14.4207 12.1537ZM14.55 13.354C15.387 13.9132 16.3617 14.1345 17.4741 14.0179C18.5785 13.9082 19.5218 13.5147 20.3039 12.8374C20.7152 12.4813 20.8919 12.1802 20.8339 11.9341C20.8302 11.8809 20.8074 11.8301 20.7655 11.7817C20.6328 11.6285 20.323 11.5722 19.8362 11.6128C19.0833 11.6721 18.0694 11.9433 16.7945 12.4264C16.6467 12.4838 16.4637 12.5576 16.2455 12.6478C16.0353 12.731 15.7859 12.8341 15.4973 12.957C16.1211 13.2212 16.8414 13.2465 17.6583 13.0329C17.6825 13.012 17.7051 13.0136 17.726 13.0378C17.7819 13.1023 17.7717 13.1394 17.6954 13.149C16.8091 13.3803 16.0216 13.3426 15.3328 13.036L14.912 13.2099C14.8416 13.2426 14.7752 13.2719 14.7128 13.2976C14.6586 13.3164 14.6043 13.3352 14.55 13.354ZM13.5863 12.5588C13.7029 12.5142 13.8201 12.4622 13.9378 12.4026C14.0555 12.343 14.1773 12.2799 14.303 12.2133C13.7385 11.5451 13.5156 10.8069 13.6342 9.99874C13.2192 10.3016 13.0194 10.7145 13.0347 11.2374C13.0533 11.7151 13.2372 12.1556 13.5863 12.5588ZM13.7224 12.716C13.8632 12.8623 14.0235 12.9986 14.2035 13.1249L14.8541 12.752C14.7172 12.659 14.5788 12.5318 14.4392 12.3705C14.3134 12.4371 14.1917 12.5002 14.074 12.5598C13.9562 12.6194 13.8391 12.6715 13.7224 12.716ZM12.5338 13.7876C12.6413 13.7651 12.8157 13.7058 13.057 13.6097C13.2903 13.5206 13.5865 13.3982 13.9455 13.2425L13.6876 13.0425C13.6017 12.9758 13.5198 12.9056 13.4419 12.832C13.2317 12.9152 13.0412 12.9885 12.8703 13.0518C12.7074 13.1081 12.5492 13.1535 12.3954 13.1878L12.5338 13.7876ZM9.94101 13.0908L10.0353 13.1997C10.6008 13.8528 11.3222 14.0748 12.1993 13.8656L12.1583 13.6472C12.1314 13.5999 12.1091 13.5415 12.0914 13.4722C12.0807 13.4109 12.067 13.3381 12.0504 13.2538C11.1395 13.4076 10.4936 13.2402 10.1129 12.7515C10.0849 12.7193 10.0836 12.6851 10.1089 12.6491L10.1991 12.6556C10.559 13.1201 11.1608 13.2692 12.0045 13.103C11.9187 12.8246 11.8376 12.5844 11.7614 12.3823C11.6933 12.1732 11.6219 12.0093 11.5472 11.8905C11.4656 11.7636 11.3829 11.6518 11.2991 11.555C11.0617 11.2809 10.8081 11.1265 10.5384 11.092C10.2837 11.0586 10.0636 11.1222 9.87813 11.2828C9.6846 11.4503 9.57702 11.6846 9.55539 11.9855C9.52462 12.3085 9.62577 12.6371 9.85884 12.9715L9.94101 13.0908Z" fill="#FCFFAF"/>
</svg>
