<svg width="119" height="119" viewBox="0 0 119 119" fill="none" xmlns="http://www.w3.org/2000/svg">
<path d="M77.6815 65.9438C76.7489 65.4782 72.1615 63.2344 71.3075 62.9219C70.4503 62.6126 69.8286 62.4594 69.2037 63.3907C68.5852 64.3188 66.7954 66.4094 66.2522 67.0282C65.709 67.6501 65.1627 67.725 64.2301 67.2626C63.2976 66.7938 60.2895 65.8157 56.7257 62.6532C53.9532 60.1907 52.0787 57.1501 51.5355 56.2188C50.9923 55.2907 51.479 54.7876 51.9437 54.3251C52.3644 53.9094 52.8794 53.2407 53.3441 52.7001C53.8119 52.1563 53.9658 51.7688 54.2798 51.147C54.5906 50.5282 54.4368 49.9876 54.2013 49.522C53.9658 49.0563 52.1007 44.4845 51.3251 42.6251C50.5652 40.8157 49.796 41.0626 49.2245 41.0313C48.6813 41.0063 48.0596 41.0001 47.4348 41.0001C46.8131 41.0001 45.802 41.2313 44.948 42.1626C44.0939 43.0907 41.6824 45.3376 41.6824 49.9095C41.6824 54.4782 45.0264 58.8938 45.4912 59.5157C45.959 60.1344 52.0724 69.5157 61.4325 73.5375C63.6587 74.4938 65.395 75.0657 66.7515 75.4907C68.9871 76.2 71.0217 76.1 72.6262 75.8594C74.4191 75.5938 78.1462 73.6125 78.9249 71.4438C79.7036 69.275 79.7036 67.4157 79.4681 67.0282C79.2357 66.6407 78.6172 66.4094 77.6815 65.9438ZM60.6569 89.0781H60.6443C55.086 89.0786 49.6298 87.5912 44.8475 84.7719L43.714 84.1031L31.9676 87.1719L35.1012 75.7719L34.3633 74.6032C31.2562 69.679 29.6125 63.9803 29.6221 58.1657C29.6252 41.1345 43.5507 27.2782 60.6695 27.2782C68.9588 27.2782 76.7521 30.497 82.6111 36.3345C85.502 39.1989 87.7933 42.6055 89.3525 46.3571C90.9118 50.1087 91.7079 54.1308 91.6949 58.1907C91.6855 75.2219 77.7631 89.0781 60.6569 89.0781ZM87.0729 31.9001C83.6134 28.4343 79.4971 25.6862 74.9626 23.8151C70.4281 21.9441 65.5656 20.9873 60.6569 21.0001C40.0748 21.0001 23.3234 37.672 23.314 58.1626C23.314 64.7126 25.0315 71.1063 28.3002 76.7407L23 96L42.7971 90.8313C48.2718 93.7998 54.4067 95.3555 60.6412 95.3563H60.6569C81.2359 95.3563 97.9904 78.6844 97.9998 58.1907C98.015 53.3072 97.0571 48.4691 95.1815 43.9564C93.306 39.4437 90.55 35.3459 87.0729 31.9001Z" fill="#FEFFE2"/>
<path d="M119 59.5C119 92.3609 92.3609 119 59.5 119C26.6391 119 0 92.3609 0 59.5C0 26.6391 26.6391 0 59.5 0C92.3609 0 119 26.6391 119 59.5ZM6.80824 59.5C6.80824 88.6009 30.3991 112.192 59.5 112.192C88.6009 112.192 112.192 88.6009 112.192 59.5C112.192 30.3991 88.6009 6.80824 59.5 6.80824C30.3991 6.80824 6.80824 30.3991 6.80824 59.5Z" fill="#FEFFE2"/>
</svg>
