<svg width="119" height="119" viewBox="0 0 119 119" fill="none" xmlns="http://www.w3.org/2000/svg">
<path d="M66.4695 53.2172L91.7838 24H85.7845L63.8048 49.3683L46.2489 24H26L52.5478 62.3618L26 93H31.9993L55.2114 66.2102L73.7512 93H94L66.4678 53.2172H66.4695ZM58.2529 62.6993L55.5627 58.8795L34.1607 28.4839H43.3752L60.6461 53.0145L63.3357 56.8343L85.7872 88.7198H76.5738L58.2529 62.7009V62.6993Z" fill="#FEFFE2"/>
<path d="M119 59.5C119 92.3609 92.3609 119 59.5 119C26.6391 119 0 92.3609 0 59.5C0 26.6391 26.6391 0 59.5 0C92.3609 0 119 26.6391 119 59.5ZM6.80824 59.5C6.80824 88.6009 30.3991 112.192 59.5 112.192C88.6009 112.192 112.192 88.6009 112.192 59.5C112.192 30.3991 88.6009 6.80824 59.5 6.80824C30.3991 6.80824 6.80824 30.3991 6.80824 59.5Z" fill="#FEFFE2"/>
</svg>
